<svg xmlns="http://www.w3.org/2000/svg" viewBox="0 0 601.94 693.89"><defs><style>.cls-1{fill:#4184f3;}.cls-2{fill:#ef7e3b;}</style></defs><g id="Layer_2" data-name="Layer 2"><g id="Layer_1-2" data-name="Layer 1"><path class="cls-1" d="M285.09,236.82a53.43,53.43,0,1,0,47.68,47.69A53.37,53.37,0,0,0,285.09,236.82Z"/><path class="cls-1" d="M279.42,115.64c-2,0-3.93,0-5.91.1A174.38,174.38,0,1,0,454,290c0-3.36-.1-6.59-.28-9.59C448.66,188,372.12,115.64,279.42,115.64Zm76.91,180.62c-3,37.22-33.26,67.52-70.48,70.48-2.08.17-4.15.25-6.17.25a77.06,77.06,0,0,1-76.82-83.25c3-37.21,33.26-67.51,70.47-70.48h0a77.07,77.07,0,0,1,83,83Z"/><path class="cls-1" d="M577.86,254.59C560.18,109.44,436.42,0,290,0,130.09,0,0,130.1,0,290A287.61,287.61,0,0,0,88.09,498.14a186.72,186.72,0,0,1,15.53,14.08,196.07,196.07,0,0,1,18.32,21.29,196.27,196.27,0,0,1,39,118,199.1,199.1,0,0,1-4.55,42.39H422.12v-24.7a197.92,197.92,0,0,1-112.63-71.57A11.76,11.76,0,0,1,308,585.73c2.33-5.39,7.6-8.18,12.81-6.79,3.36.9,6.92,3.71,10.6,8.36a174.06,174.06,0,0,0,103.45,60.42,188.41,188.41,0,0,0,97.6-9.13,1.08,1.08,0,0,0,.69-1c0-17.81,0-35.69.06-54,0-19.84.75-39.86,1.47-59.23.66-17.6,1.41-37.45,1.45-56.74l0-3.8a9.77,9.77,0,0,1,5.86-9A12.48,12.48,0,0,1,555,457a29.31,29.31,0,0,0,47-12.16ZM449.8,391A198.87,198.87,0,0,1,279.59,487.9,198.1,198.1,0,0,1,81.91,280.64C86.65,178.47,170.46,95.7,272.71,92.22A197.83,197.83,0,0,1,477.18,279.07c.2,3.38.31,7.08.31,10.94A197.51,197.51,0,0,1,449.8,391Z"/><circle class="cls-2" cx="279.59" cy="290" r="23.91" transform="translate(-123.24 288.57) rotate(-45.84)"/></g></g></svg>