<?xml version="1.0" encoding="utf-8"?>
<!-- Generator: Adobe Illustrator 25.0.0, SVG Export Plug-In . SVG Version: 6.00 Build 0)  -->
<svg version="1.1" id="Brain" xmlns="http://www.w3.org/2000/svg" xmlns:xlink="http://www.w3.org/1999/xlink" x="0px" y="0px"
	 viewBox="0 0 601.9 693.9" style="enable-background:new 0 0 601.9 693.9;" xml:space="preserve">
<style type="text/css">
	.st0{fill:#FFFFFF;}
</style>
<path class="st0" d="M279.4,115.6c-2,0-3.9,0-5.9,0.1c-96.2,3.4-171.5,84.1-168.2,180.4s84.1,171.5,180.4,168.2
	C379.6,461,454,383.9,454,290c0-3.4-0.1-6.6-0.3-9.6C448.7,188,372.1,115.6,279.4,115.6z M356.3,296.3c-3,37.2-33.3,67.5-70.5,70.5
	c-2.1,0.2-4.1,0.2-6.2,0.2c-42.6,0-77.1-34.5-77.1-77.1c0-2.1,0.1-4.1,0.2-6.2c3-37.2,33.3-67.5,70.5-70.5l0,0
	c42.4-3.4,79.6,28.2,83,70.6C356.7,288,356.7,292.1,356.3,296.3L356.3,296.3z"/>
<path class="st0" d="M577.9,254.6C560.2,109.4,436.4,0,290,0C130.1,0,0,130.1,0,290c-0.3,78.5,31.6,153.7,88.1,208.1
	c5.4,4.4,10.6,9.1,15.5,14.1c6.6,6.6,12.7,13.8,18.3,21.3c25.4,34.1,39.1,75.5,39,118c0,14.3-1.5,28.5-4.6,42.4H422v-24.7
	c-44.7-10.1-84.5-35.4-112.6-71.6c-2.6-3.4-3.2-8-1.5-11.9c2.3-5.4,7.6-8.2,12.8-6.8c3.4,0.9,6.9,3.7,10.6,8.4
	c26.2,31.7,62.9,53.2,103.4,60.4c32.8,5.6,66.4,2.5,97.6-9.1c0.4-0.2,0.7-0.6,0.7-1c0-17.8,0-35.7,0.1-54c0-19.8,0.8-39.9,1.5-59.2
	c0.7-17.6,1.4-37.5,1.5-56.7v-3.8c0-3.9,2.3-7.4,5.9-9c4.4-1.8,9.4-1,13,2.2c12.1,10.7,30.7,9.5,41.4-2.6c2.5-2.8,4.4-6,5.6-9.6
	L577.9,254.6z M449.8,391c-35.8,59.9-100.4,96.7-170.2,96.9c-109.4-0.1-198-88.9-197.9-198.3c0-3,0.1-6,0.2-9
	c4.7-102.2,88.6-184.9,190.8-188.4c107.7-3.8,198.6,79.3,204.5,186.9c0.2,3.4,0.3,7.1,0.3,10.9C477.5,325.6,467.9,360.4,449.8,391z"
	/>
<path class="st0" d="M332.8,284.5c-2.6-25.2-22.5-45.1-47.7-47.7c-29.4-3-55.6,18.3-58.6,47.7c-3,29.4,18.3,55.6,47.7,58.6
	s55.6-18.3,58.6-47.7C333.2,291.8,333.2,288.1,332.8,284.5z M279.6,313.9c-13.2,0-23.9-10.7-23.9-23.9c0-13.2,10.7-23.9,23.9-23.9
	c13.2,0,23.9,10.7,23.9,23.9C303.5,303.2,292.8,313.9,279.6,313.9z"/>
</svg>
