<svg xmlns="http://www.w3.org/2000/svg" xmlns:xlink="http://www.w3.org/1999/xlink" width="480.756" height="364.485" viewBox="0 0 480.756 364.485">
  <defs>
    <linearGradient id="linear-gradient" x1="-13.005" y1="3.026" x2="-13.004" y2="3.026" gradientUnits="objectBoundingBox">
      <stop offset="0" stop-color="#3a519f"/>
      <stop offset="0.178" stop-color="#3d53a0"/>
      <stop offset="0.388" stop-color="#495da7"/>
      <stop offset="0.613" stop-color="#6472b5"/>
      <stop offset="0.849" stop-color="#8e94c9"/>
      <stop offset="1" stop-color="#acaed7"/>
    </linearGradient>
    <linearGradient id="linear-gradient-2" x1="-45.268" y1="38.911" x2="-45.268" y2="38.907" gradientUnits="objectBoundingBox">
      <stop offset="0" stop-color="#b0b0d8"/>
      <stop offset="0.294" stop-color="#b4b5db"/>
      <stop offset="0.64" stop-color="#c7c7e4"/>
      <stop offset="1" stop-color="#e1e2f1"/>
    </linearGradient>
    <linearGradient id="linear-gradient-3" x1="-14.179" y1="3.055" x2="-14.179" y2="3.055" xlink:href="#linear-gradient-2"/>
    <clipPath id="clip-path">
      <path id="SVGID" d="M1035.89,583.272l72.876,42.077V472.9l-72.876-42.077Z" fill="none"/>
    </clipPath>
    <linearGradient id="linear-gradient-4" x1="-5.417" y1="3.361" x2="-5.417" y2="3.361" xlink:href="#linear-gradient-2"/>
    <linearGradient id="linear-gradient-5" x1="-32.024" y1="5.159" x2="-32.023" y2="5.159" xlink:href="#linear-gradient"/>
    <linearGradient id="linear-gradient-6" x1="-3.926" y1="4.074" x2="-3.926" y2="4.074" xlink:href="#linear-gradient"/>
    <linearGradient id="linear-gradient-7" x1="-3.924" y1="4.045" x2="-3.924" y2="4.045" xlink:href="#linear-gradient-2"/>
    <linearGradient id="linear-gradient-8" x1="-17.436" y1="13.897" x2="-17.435" y2="13.897" xlink:href="#linear-gradient-2"/>
    <clipPath id="clip-path-2">
      <path id="SVGID-2" data-name="SVGID" d="M1160.74,353.207l-154.158,89,19.117,112.7,154.054-88.937Z" fill="none"/>
    </clipPath>
    <linearGradient id="linear-gradient-9" x1="-3.54" y1="4.429" x2="-3.54" y2="4.429" xlink:href="#linear-gradient-2"/>
    <linearGradient id="linear-gradient-10" x1="-14.988" y1="16.277" x2="-14.988" y2="16.277" xlink:href="#linear-gradient-2"/>
    <linearGradient id="linear-gradient-11" x1="-4.345" y1="2.861" x2="-4.345" y2="2.861" xlink:href="#linear-gradient-2"/>
    <linearGradient id="linear-gradient-12" x1="-25.622" y1="4.276" x2="-25.621" y2="4.276" xlink:href="#linear-gradient"/>
    <linearGradient id="linear-gradient-13" x1="-3.169" y1="3.329" x2="-3.169" y2="3.329" xlink:href="#linear-gradient"/>
    <linearGradient id="linear-gradient-14" x1="-3.167" y1="3.318" x2="-3.167" y2="3.318" xlink:href="#linear-gradient-2"/>
    <linearGradient id="linear-gradient-15" x1="-14.446" y1="11.057" x2="-14.446" y2="11.057" xlink:href="#linear-gradient-2"/>
    <clipPath id="clip-path-3">
      <path id="SVGID-3" data-name="SVGID" d="M963.835,462.874l-154.158,89,19.117,112.7,154.054-88.943Z" fill="none"/>
    </clipPath>
    <linearGradient id="linear-gradient-16" x1="-2.783" y1="3.702" x2="-2.783" y2="3.702" xlink:href="#linear-gradient-2"/>
    <linearGradient id="linear-gradient-17" x1="-11.997" y1="13.437" x2="-11.997" y2="13.437" xlink:href="#linear-gradient-2"/>
  </defs>
  <g id="Group_109" data-name="Group 109" transform="translate(-636 -372.637)">
    <rect id="Rectangle_47" data-name="Rectangle 47" width="257.809" height="43.333" rx="5.069" transform="translate(638.376 381)" fill="#1b276d"/>
    <g id="Broker_XTS_OMS_RMS" data-name="Broker XTS OMS RMS" style="isolation: isolate">
      <g id="Group_92" data-name="Group 92" style="isolation: isolate">
        <path id="Path_421" data-name="Path 421" d="M751.934,399.281v-7.82h2.68a3.283,3.283,0,0,1,2.02.531,1.875,1.875,0,0,1,.693,1.585,1.689,1.689,0,0,1-.29.967,1.867,1.867,0,0,1-.849.666,1.724,1.724,0,0,1,.98.647,1.887,1.887,0,0,1,.347,1.141,2.081,2.081,0,0,1-.707,1.692,3.069,3.069,0,0,1-2.022.591Zm1.359-4.527h1.332a1.545,1.545,0,0,0,.991-.288.986.986,0,0,0,.357-.814,1,1,0,0,0-.33-.838,1.676,1.676,0,0,0-1.029-.257h-1.321Zm0,1V398.2H754.8a1.454,1.454,0,0,0,1-.317,1.249,1.249,0,0,0-.886-2.127Z" fill="#fff"/>
        <path id="Path_422" data-name="Path 422" d="M761.79,394.662a3.3,3.3,0,0,0-.532-.043,1.2,1.2,0,0,0-1.208.688v3.974h-1.3V393.47h1.246l.032.649a1.472,1.472,0,0,1,1.31-.757,1.218,1.218,0,0,1,.462.076Z" fill="#fff"/>
        <path id="Path_423" data-name="Path 423" d="M762.177,396.322a3.431,3.431,0,0,1,.338-1.539,2.478,2.478,0,0,1,.951-1.053,2.68,2.68,0,0,1,1.407-.368,2.545,2.545,0,0,1,1.91.757,2.989,2.989,0,0,1,.792,2.01l.005.306a3.459,3.459,0,0,1-.33,1.536,2.441,2.441,0,0,1-.946,1.047,2.686,2.686,0,0,1-1.42.371,2.52,2.52,0,0,1-1.968-.82,3.131,3.131,0,0,1-.739-2.182Zm1.3.113a2.334,2.334,0,0,0,.371,1.4,1.292,1.292,0,0,0,2.06-.008,2.589,2.589,0,0,0,.367-1.509,2.312,2.312,0,0,0-.378-1.4,1.211,1.211,0,0,0-1.029-.516,1.2,1.2,0,0,0-1.015.507A2.539,2.539,0,0,0,763.482,396.435Z" fill="#fff"/>
        <path id="Path_424" data-name="Path 424" d="M770.572,396.789l-.58.6v1.9h-1.3v-8.25h1.3v4.759l.408-.511,1.606-1.809h1.568l-2.159,2.423,2.39,3.388H772.3Z" fill="#fff"/>
        <path id="Path_425" data-name="Path 425" d="M776.877,399.389a2.7,2.7,0,0,1-2.011-.782,2.834,2.834,0,0,1-.771-2.082v-.16a3.486,3.486,0,0,1,.336-1.555,2.556,2.556,0,0,1,.943-1.066,2.482,2.482,0,0,1,1.353-.382,2.285,2.285,0,0,1,1.835.757,3.209,3.209,0,0,1,.646,2.144v.526h-3.8a1.751,1.751,0,0,0,.481,1.139,1.443,1.443,0,0,0,1.061.419,1.767,1.767,0,0,0,1.461-.726l.7.672a2.352,2.352,0,0,1-.931.809A2.929,2.929,0,0,1,776.877,399.389Zm-.155-4.979a1.1,1.1,0,0,0-.868.375,1.956,1.956,0,0,0-.421,1.048h2.486v-.1a1.586,1.586,0,0,0-.349-.991A1.089,1.089,0,0,0,776.722,394.41Z" fill="#fff"/>
        <path id="Path_426" data-name="Path 426" d="M783.264,394.662a3.3,3.3,0,0,0-.532-.043,1.2,1.2,0,0,0-1.209.688v3.974h-1.3V393.47h1.246l.033.649a1.472,1.472,0,0,1,1.31-.757,1.226,1.226,0,0,1,.462.076Z" fill="#fff"/>
      </g>
      <g id="Group_93" data-name="Group 93" style="isolation: isolate">
        <path id="Path_427" data-name="Path 427" d="M733.627,407.486l1.644-2.825h1.568l-2.363,3.878,2.417,3.942h-1.585l-1.681-2.868-1.687,2.868h-1.579l2.423-3.942-2.369-3.878h1.568Z" fill="#fff"/>
        <path id="Path_428" data-name="Path 428" d="M743.547,405.756h-2.438v6.725h-1.348v-6.725h-2.417v-1.1h6.2Z" fill="#fff"/>
        <path id="Path_429" data-name="Path 429" d="M748.575,410.467a.945.945,0,0,0-.363-.8,4.33,4.33,0,0,0-1.308-.564,6.329,6.329,0,0,1-1.5-.634,2.006,2.006,0,0,1-1.068-1.751,1.9,1.9,0,0,1,.771-1.557,3.111,3.111,0,0,1,2-.613,3.393,3.393,0,0,1,1.456.3,2.391,2.391,0,0,1,1,.856,2.2,2.2,0,0,1,.365,1.234h-1.353a1.222,1.222,0,0,0-.385-.959,1.578,1.578,0,0,0-1.1-.347,1.657,1.657,0,0,0-1.033.284.949.949,0,0,0-.369.8.858.858,0,0,0,.4.718,4.6,4.6,0,0,0,1.31.559,6,6,0,0,1,1.467.617,2.341,2.341,0,0,1,.811.8,2.069,2.069,0,0,1,.258,1.05,1.862,1.862,0,0,1-.749,1.555,3.253,3.253,0,0,1-2.034.577,3.807,3.807,0,0,1-1.56-.314,2.624,2.624,0,0,1-1.107-.867,2.171,2.171,0,0,1-.394-1.289h1.359a1.265,1.265,0,0,0,.44,1.031,1.933,1.933,0,0,0,1.262.365,1.683,1.683,0,0,0,1.067-.287A.927.927,0,0,0,748.575,410.467Z" fill="#fff"/>
        <path id="Path_430" data-name="Path 430" d="M760.106,408.775a4.8,4.8,0,0,1-.4,2.017,3.011,3.011,0,0,1-1.136,1.332,3.335,3.335,0,0,1-3.394,0,3.048,3.048,0,0,1-1.15-1.325,4.653,4.653,0,0,1-.411-1.981v-.441a4.763,4.763,0,0,1,.405-2.019,3.049,3.049,0,0,1,1.145-1.34,3.111,3.111,0,0,1,1.694-.465,3.154,3.154,0,0,1,1.7.459,3.015,3.015,0,0,1,1.141,1.321,4.739,4.739,0,0,1,.408,2.007Zm-1.358-.408a3.416,3.416,0,0,0-.492-1.993,1.734,1.734,0,0,0-2.772,0,3.35,3.35,0,0,0-.507,1.952v.451a3.4,3.4,0,0,0,.5,1.993,1.618,1.618,0,0,0,1.394.7,1.6,1.6,0,0,0,1.389-.687,3.474,3.474,0,0,0,.486-2.009Z" fill="#fff"/>
        <path id="Path_431" data-name="Path 431" d="M763.222,404.661l2.256,5.994,2.25-5.994h1.756v7.82h-1.353V409.9l.134-3.448-2.309,6.026h-.973l-2.3-6.022.134,3.444v2.578H761.46v-7.82Z" fill="#fff"/>
        <path id="Path_432" data-name="Path 432" d="M775.178,410.467a.945.945,0,0,0-.363-.8,4.33,4.33,0,0,0-1.308-.564,6.329,6.329,0,0,1-1.5-.634,2.006,2.006,0,0,1-1.068-1.751,1.9,1.9,0,0,1,.771-1.557,3.111,3.111,0,0,1,2-.613,3.393,3.393,0,0,1,1.456.3,2.391,2.391,0,0,1,1,.856,2.2,2.2,0,0,1,.365,1.234h-1.353a1.222,1.222,0,0,0-.385-.959,1.578,1.578,0,0,0-1.1-.347,1.657,1.657,0,0,0-1.033.284.949.949,0,0,0-.369.8.858.858,0,0,0,.4.718,4.6,4.6,0,0,0,1.31.559,6,6,0,0,1,1.467.617,2.341,2.341,0,0,1,.811.8,2.069,2.069,0,0,1,.258,1.05,1.862,1.862,0,0,1-.749,1.555,3.253,3.253,0,0,1-2.034.577,3.808,3.808,0,0,1-1.56-.314,2.625,2.625,0,0,1-1.107-.867,2.171,2.171,0,0,1-.394-1.289h1.359a1.265,1.265,0,0,0,.44,1.031,1.933,1.933,0,0,0,1.262.365,1.681,1.681,0,0,0,1.067-.287A.926.926,0,0,0,775.178,410.467Z" fill="#fff"/>
        <path id="Path_433" data-name="Path 433" d="M777.971,413.153h-1.026l3.077-8.492h1.026Z" fill="#fff"/>
        <path id="Path_434" data-name="Path 434" d="M784.953,409.473h-1.515v3.008H782.08v-7.82h2.75a3.2,3.2,0,0,1,2.089.607,2.148,2.148,0,0,1,.736,1.758,2.2,2.2,0,0,1-.379,1.314,2.416,2.416,0,0,1-1.055.815l1.756,3.257v.069h-1.456Zm-1.515-1.1h1.4a1.553,1.553,0,0,0,1.074-.346,1.208,1.208,0,0,0,.387-.948,1.287,1.287,0,0,0-.357-.972,1.514,1.514,0,0,0-1.066-.355h-1.435Z" fill="#fff"/>
        <path id="Path_435" data-name="Path 435" d="M790.706,404.661l2.255,5.994,2.251-5.994h1.756v7.82h-1.353V409.9l.134-3.448-2.31,6.026h-.972l-2.3-6.022.134,3.444v2.578h-1.353v-7.82Z" fill="#fff"/>
        <path id="Path_436" data-name="Path 436" d="M802.662,410.467a.945.945,0,0,0-.363-.8,4.33,4.33,0,0,0-1.308-.564,6.329,6.329,0,0,1-1.5-.634,2.007,2.007,0,0,1-1.069-1.751,1.9,1.9,0,0,1,.771-1.557,3.116,3.116,0,0,1,2-.613,3.393,3.393,0,0,1,1.456.3,2.391,2.391,0,0,1,1,.856,2.2,2.2,0,0,1,.365,1.234h-1.353a1.222,1.222,0,0,0-.385-.959,1.579,1.579,0,0,0-1.1-.347,1.657,1.657,0,0,0-1.033.284.949.949,0,0,0-.369.8.858.858,0,0,0,.4.718,4.59,4.59,0,0,0,1.31.559,6,6,0,0,1,1.467.617,2.341,2.341,0,0,1,.811.8,2.069,2.069,0,0,1,.258,1.05,1.86,1.86,0,0,1-.75,1.555,3.25,3.25,0,0,1-2.033.577,3.807,3.807,0,0,1-1.56-.314,2.625,2.625,0,0,1-1.107-.867,2.171,2.171,0,0,1-.394-1.289h1.359a1.265,1.265,0,0,0,.44,1.031,1.931,1.931,0,0,0,1.262.365,1.683,1.683,0,0,0,1.067-.287A.929.929,0,0,0,802.662,410.467Z" fill="#fff"/>
      </g>
    </g>
    <path id="Rectangle_26" data-name="Rectangle 26" d="M642.036,468.649h91.511a3.841,3.841,0,0,1,3.66,4v17a3.842,3.842,0,0,1-3.66,4H642.036a3.841,3.841,0,0,1-3.66-4v-17A3.84,3.84,0,0,1,642.036,468.649Z" fill="#ffbc2a"/>
    <g id="Order_Confirmation_on_custom_app_web_mobile_EXE_etc..." data-name="Order Confirmation on custom app web mobile EXE etc..." style="isolation: isolate">
      <g id="Group_94" data-name="Group 94" style="isolation: isolate">
        <path id="Path_437" data-name="Path 437" d="M918.862,377.294a4.8,4.8,0,0,1-.4,2.017,3.011,3.011,0,0,1-1.136,1.332,3.335,3.335,0,0,1-3.394,0,3.042,3.042,0,0,1-1.15-1.325,4.639,4.639,0,0,1-.411-1.981V376.9a4.762,4.762,0,0,1,.4-2.019,3.049,3.049,0,0,1,1.145-1.34,3.337,3.337,0,0,1,3.388-.006,3.008,3.008,0,0,1,1.142,1.322,4.73,4.73,0,0,1,.408,2.006Zm-1.359-.408a3.418,3.418,0,0,0-.491-1.993,1.734,1.734,0,0,0-2.772,0,3.351,3.351,0,0,0-.507,1.952v.451a3.4,3.4,0,0,0,.5,1.993,1.618,1.618,0,0,0,1.394.7,1.6,1.6,0,0,0,1.389-.687,3.474,3.474,0,0,0,.485-2.009Z" fill="#fff"/>
        <path id="Path_438" data-name="Path 438" d="M923.132,376.381a3.3,3.3,0,0,0-.531-.043,1.2,1.2,0,0,0-1.209.687V381h-1.305v-5.812h1.246l.032.65a1.472,1.472,0,0,1,1.311-.757,1.226,1.226,0,0,1,.462.075Z" fill="#fff"/>
        <path id="Path_439" data-name="Path 439" d="M923.61,378.051a3.457,3.457,0,0,1,.623-2.156,2,2,0,0,1,1.671-.814,1.9,1.9,0,0,1,1.493.645V372.75H928.7V381h-1.181l-.065-.6a1.922,1.922,0,0,1-1.563.709,1.981,1.981,0,0,1-1.651-.822A3.577,3.577,0,0,1,923.61,378.051Zm1.306.113a2.421,2.421,0,0,0,.34,1.383,1.109,1.109,0,0,0,.97.5,1.232,1.232,0,0,0,1.171-.714v-2.482a1.214,1.214,0,0,0-1.16-.7,1.114,1.114,0,0,0-.978.5A2.7,2.7,0,0,0,924.916,378.164Z" fill="#fff"/>
        <path id="Path_440" data-name="Path 440" d="M932.623,381.107a2.7,2.7,0,0,1-2.011-.781,2.835,2.835,0,0,1-.771-2.082v-.16a3.5,3.5,0,0,1,.335-1.556,2.553,2.553,0,0,1,.943-1.065,2.488,2.488,0,0,1,1.354-.382,2.284,2.284,0,0,1,1.834.757,3.208,3.208,0,0,1,.647,2.143v.527h-3.8a1.743,1.743,0,0,0,.48,1.138,1.441,1.441,0,0,0,1.061.419,1.766,1.766,0,0,0,1.461-.725l.7.672a2.353,2.353,0,0,1-.932.808A2.915,2.915,0,0,1,932.623,381.107Zm-.156-4.978a1.1,1.1,0,0,0-.867.375,1.947,1.947,0,0,0-.422,1.048h2.487v-.1a1.591,1.591,0,0,0-.349-.991A1.09,1.09,0,0,0,932.467,376.129Z" fill="#fff"/>
        <path id="Path_441" data-name="Path 441" d="M939.009,376.381a3.3,3.3,0,0,0-.531-.043,1.2,1.2,0,0,0-1.209.687V381h-1.3v-5.812h1.246l.032.65a1.472,1.472,0,0,1,1.311-.757,1.227,1.227,0,0,1,.462.075Z" fill="#fff"/>
        <path id="Path_442" data-name="Path 442" d="M948.667,378.454a2.824,2.824,0,0,1-.924,1.952,3.147,3.147,0,0,1-2.143.7,3.048,3.048,0,0,1-1.647-.443,2.907,2.907,0,0,1-1.1-1.26,4.54,4.54,0,0,1-.4-1.895v-.731a4.59,4.59,0,0,1,.392-1.95,2.949,2.949,0,0,1,1.126-1.3,3.139,3.139,0,0,1,1.694-.457,3.023,3.023,0,0,1,2.084.7,2.931,2.931,0,0,1,.919,1.985h-1.354a1.924,1.924,0,0,0-.492-1.217,1.621,1.621,0,0,0-1.157-.373,1.586,1.586,0,0,0-1.361.647,3.24,3.24,0,0,0-.487,1.9v.694a3.43,3.43,0,0,0,.455,1.935,1.5,1.5,0,0,0,1.329.667,1.758,1.758,0,0,0,1.2-.36,1.881,1.881,0,0,0,.51-1.2Z" fill="#fff"/>
        <path id="Path_443" data-name="Path 443" d="M949.51,378.041a3.431,3.431,0,0,1,.338-1.539,2.472,2.472,0,0,1,.951-1.053,2.68,2.68,0,0,1,1.407-.368,2.545,2.545,0,0,1,1.91.757,2.989,2.989,0,0,1,.792,2.01l.005.305a3.456,3.456,0,0,1-.33,1.536,2.43,2.43,0,0,1-.946,1.047,2.685,2.685,0,0,1-1.42.371,2.519,2.519,0,0,1-1.968-.819,3.132,3.132,0,0,1-.739-2.183Zm1.3.112a2.336,2.336,0,0,0,.371,1.4,1.294,1.294,0,0,0,2.06-.008,2.589,2.589,0,0,0,.367-1.509,2.31,2.31,0,0,0-.378-1.4,1.211,1.211,0,0,0-1.029-.516,1.2,1.2,0,0,0-1.015.507A2.536,2.536,0,0,0,950.815,378.153Z" fill="#fff"/>
        <path id="Path_444" data-name="Path 444" d="M957.228,375.188l.038.671a2.091,2.091,0,0,1,1.692-.778q1.815,0,1.847,2.079V381h-1.3v-3.766a1.2,1.2,0,0,0-.239-.818,1,1,0,0,0-.782-.266,1.258,1.258,0,0,0-1.176.714V381H956v-5.812Z" fill="#fff"/>
        <path id="Path_445" data-name="Path 445" d="M962.594,381v-4.845h-.887v-.967h.887v-.532a1.99,1.99,0,0,1,.537-1.492,2.055,2.055,0,0,1,1.5-.527,3.046,3.046,0,0,1,.73.1l-.032,1.02a2.633,2.633,0,0,0-.5-.043.839.839,0,0,0-.935.962v.515h1.182v.967H963.9V381Z" fill="#fff"/>
        <path id="Path_446" data-name="Path 446" d="M966.036,373.68a.691.691,0,0,1,.192-.5.715.715,0,0,1,.544-.2.728.728,0,0,1,.548.2.689.689,0,0,1,.194.5.673.673,0,0,1-.194.491.733.733,0,0,1-.548.2.72.72,0,0,1-.544-.2A.675.675,0,0,1,966.036,373.68Zm1.386,7.32h-1.3v-5.812h1.3Z" fill="#fff"/>
        <path id="Path_447" data-name="Path 447" d="M971.886,376.381a3.31,3.31,0,0,0-.532-.043,1.2,1.2,0,0,0-1.208.687V381H968.84v-5.812h1.246l.032.65a1.473,1.473,0,0,1,1.311-.757,1.223,1.223,0,0,1,.462.075Z" fill="#fff"/>
        <path id="Path_448" data-name="Path 448" d="M973.937,375.188l.038.607a2.09,2.09,0,0,1,1.675-.714,1.607,1.607,0,0,1,1.6.892,2.06,2.06,0,0,1,1.783-.892,1.809,1.809,0,0,1,1.431.532,2.341,2.341,0,0,1,.481,1.569V381h-1.3v-3.781a1.156,1.156,0,0,0-.241-.811,1.06,1.06,0,0,0-.8-.258,1.084,1.084,0,0,0-.728.239,1.256,1.256,0,0,0-.394.626l.005,3.985h-1.3v-3.824a.932.932,0,0,0-1.048-1.026,1.147,1.147,0,0,0-1.111.639V381h-1.306v-5.812Z" fill="#fff"/>
        <path id="Path_449" data-name="Path 449" d="M985.754,381a1.955,1.955,0,0,1-.15-.543,2.2,2.2,0,0,1-2.955.15,1.594,1.594,0,0,1-.553-1.234,1.651,1.651,0,0,1,.69-1.427,3.346,3.346,0,0,1,1.974-.5h.8v-.381a1.014,1.014,0,0,0-.253-.722,1,1,0,0,0-.768-.272,1.143,1.143,0,0,0-.73.224.686.686,0,0,0-.286.566h-1.3a1.449,1.449,0,0,1,.316-.894,2.119,2.119,0,0,1,.862-.653,3.04,3.04,0,0,1,1.217-.236,2.437,2.437,0,0,1,1.627.513,1.829,1.829,0,0,1,.623,1.442v2.621a2.943,2.943,0,0,0,.221,1.251V381Zm-1.435-.939a1.488,1.488,0,0,0,.728-.189,1.269,1.269,0,0,0,.514-.505v-1.1h-.7a1.921,1.921,0,0,0-1.089.252.818.818,0,0,0-.366.715.764.764,0,0,0,.249.6A.973.973,0,0,0,984.319,380.061Z" fill="#fff"/>
        <path id="Path_450" data-name="Path 450" d="M989.868,373.775v1.413h1.026v.967h-1.026V379.4a.72.72,0,0,0,.131.481.61.61,0,0,0,.471.147,2.052,2.052,0,0,0,.456-.052v1.009a3.224,3.224,0,0,1-.86.123q-1.5,0-1.5-1.66v-3.292h-.956v-.967h.956v-1.413Z" fill="#fff"/>
        <path id="Path_451" data-name="Path 451" d="M991.893,373.68a.691.691,0,0,1,.191-.5.719.719,0,0,1,.545-.2.729.729,0,0,1,.548.2.688.688,0,0,1,.193.5.672.672,0,0,1-.193.491.735.735,0,0,1-.548.2.725.725,0,0,1-.545-.2A.674.674,0,0,1,991.893,373.68Zm1.385,7.32h-1.3v-5.812h1.3Z" fill="#fff"/>
        <path id="Path_452" data-name="Path 452" d="M994.455,378.041a3.418,3.418,0,0,1,.338-1.539,2.472,2.472,0,0,1,.951-1.053,2.68,2.68,0,0,1,1.407-.368,2.543,2.543,0,0,1,1.91.757,2.989,2.989,0,0,1,.792,2.01l0,.305a3.442,3.442,0,0,1-.331,1.536,2.422,2.422,0,0,1-.945,1.047,2.685,2.685,0,0,1-1.42.371,2.523,2.523,0,0,1-1.969-.819,3.137,3.137,0,0,1-.738-2.183Zm1.3.112a2.343,2.343,0,0,0,.371,1.4,1.205,1.205,0,0,0,1.031.507,1.188,1.188,0,0,0,1.028-.515,2.581,2.581,0,0,0,.369-1.509,2.31,2.31,0,0,0-.379-1.4,1.277,1.277,0,0,0-2.044-.009A2.543,2.543,0,0,0,995.76,378.153Z" fill="#fff"/>
        <path id="Path_453" data-name="Path 453" d="M1002.173,375.188l.038.671a2.091,2.091,0,0,1,1.691-.778q1.816,0,1.848,2.079V381h-1.3v-3.766a1.2,1.2,0,0,0-.239-.818,1,1,0,0,0-.781-.266,1.258,1.258,0,0,0-1.177.714V381h-1.3v-5.812Z" fill="#fff"/>
        <path id="Path_454" data-name="Path 454" d="M1009.574,378.041a3.431,3.431,0,0,1,.339-1.539,2.47,2.47,0,0,1,.95-1.053,2.684,2.684,0,0,1,1.408-.368,2.545,2.545,0,0,1,1.91.757,2.989,2.989,0,0,1,.792,2.01l.005.305a3.442,3.442,0,0,1-.331,1.536,2.422,2.422,0,0,1-.945,1.047,2.692,2.692,0,0,1-1.421.371,2.522,2.522,0,0,1-1.968-.819,3.132,3.132,0,0,1-.739-2.183Zm1.306.112a2.343,2.343,0,0,0,.37,1.4,1.295,1.295,0,0,0,2.061-.008,2.589,2.589,0,0,0,.367-1.509,2.31,2.31,0,0,0-.378-1.4,1.211,1.211,0,0,0-1.029-.516,1.2,1.2,0,0,0-1.015.507A2.536,2.536,0,0,0,1010.88,378.153Z" fill="#fff"/>
        <path id="Path_455" data-name="Path 455" d="M1017.293,375.188l.037.671a2.093,2.093,0,0,1,1.692-.778q1.815,0,1.848,2.079V381h-1.306v-3.766a1.2,1.2,0,0,0-.238-.818,1,1,0,0,0-.782-.266,1.258,1.258,0,0,0-1.176.714V381h-1.3v-5.812Z" fill="#fff"/>
      </g>
      <g id="Group_95" data-name="Group 95" style="isolation: isolate">
        <path id="Path_456" data-name="Path 456" d="M914.882,393.266a1.177,1.177,0,0,0,.811-.285.971.971,0,0,0,.344-.7h1.23a1.916,1.916,0,0,1-.338,1.013,2.222,2.222,0,0,1-.86.744,2.567,2.567,0,0,1-1.171.274,2.48,2.48,0,0,1-1.933-.789,3.138,3.138,0,0,1-.715-2.182V391.2a3.08,3.08,0,0,1,.709-2.124,2.457,2.457,0,0,1,1.934-.8,2.382,2.382,0,0,1,1.689.6,2.156,2.156,0,0,1,.685,1.587h-1.23a1.2,1.2,0,0,0-.341-.822,1.1,1.1,0,0,0-.814-.322,1.146,1.146,0,0,0-.977.459,2.341,2.341,0,0,0-.349,1.394v.21a2.385,2.385,0,0,0,.34,1.409A1.152,1.152,0,0,0,914.882,393.266Z" fill="#fff"/>
        <path id="Path_457" data-name="Path 457" d="M921.773,393.631a2.024,2.024,0,0,1-1.632.677,1.807,1.807,0,0,1-1.432-.553,2.355,2.355,0,0,1-.486-1.6v-3.764h1.3v3.749q0,1.105.919,1.106a1.288,1.288,0,0,0,1.283-.682v-4.173h1.306V394.2h-1.23Z" fill="#fff"/>
        <path id="Path_458" data-name="Path 458" d="M927.623,392.621a.593.593,0,0,0-.288-.532,3.066,3.066,0,0,0-.953-.322,4.906,4.906,0,0,1-1.112-.354,1.484,1.484,0,0,1-.978-1.37,1.55,1.55,0,0,1,.634-1.257,2.505,2.505,0,0,1,1.612-.505,2.609,2.609,0,0,1,1.684.516,1.639,1.639,0,0,1,.641,1.337h-1.3a.8.8,0,0,0-.279-.625,1.067,1.067,0,0,0-.741-.25,1.153,1.153,0,0,0-.7.2.626.626,0,0,0-.272.531.527.527,0,0,0,.253.467,3.438,3.438,0,0,0,1.02.336,4.819,4.819,0,0,1,1.206.4,1.7,1.7,0,0,1,.65.562,1.43,1.43,0,0,1,.212.8,1.514,1.514,0,0,1-.65,1.269,2.764,2.764,0,0,1-1.7.487,3,3,0,0,1-1.273-.258,2.086,2.086,0,0,1-.87-.709,1.678,1.678,0,0,1-.312-.973h1.268a.917.917,0,0,0,.349.712,1.353,1.353,0,0,0,.854.25,1.316,1.316,0,0,0,.784-.2A.608.608,0,0,0,927.623,392.621Z" fill="#fff"/>
        <path id="Path_459" data-name="Path 459" d="M931.678,386.976v1.413H932.7v.966h-1.026V392.6a.719.719,0,0,0,.131.48.609.609,0,0,0,.47.148,2.056,2.056,0,0,0,.457-.053v1.01a3.235,3.235,0,0,1-.86.123q-1.5,0-1.5-1.661v-3.292h-.956v-.966h.956v-1.413Z" fill="#fff"/>
        <path id="Path_460" data-name="Path 460" d="M933.294,391.241a3.418,3.418,0,0,1,.339-1.539,2.469,2.469,0,0,1,.95-1.053,2.686,2.686,0,0,1,1.408-.368,2.541,2.541,0,0,1,1.909.757,2.98,2.98,0,0,1,.792,2.01l.006.306a3.449,3.449,0,0,1-.331,1.536,2.44,2.44,0,0,1-.945,1.047,2.689,2.689,0,0,1-1.421.371,2.522,2.522,0,0,1-1.968-.82,3.136,3.136,0,0,1-.739-2.182Zm1.306.113a2.342,2.342,0,0,0,.37,1.4,1.2,1.2,0,0,0,1.031.508,1.191,1.191,0,0,0,1.029-.516,2.589,2.589,0,0,0,.368-1.509,2.317,2.317,0,0,0-.378-1.4,1.211,1.211,0,0,0-1.029-.516,1.2,1.2,0,0,0-1.015.507A2.539,2.539,0,0,0,934.6,391.354Z" fill="#fff"/>
        <path id="Path_461" data-name="Path 461" d="M941.029,388.389l.037.606a2.1,2.1,0,0,1,1.676-.714,1.605,1.605,0,0,1,1.595.892,2.061,2.061,0,0,1,1.784-.892,1.809,1.809,0,0,1,1.431.532,2.347,2.347,0,0,1,.481,1.569V394.2h-1.3v-3.781a1.156,1.156,0,0,0-.242-.811,1.061,1.061,0,0,0-.8-.257,1.087,1.087,0,0,0-.728.238,1.258,1.258,0,0,0-.4.626l.005,3.985h-1.3v-3.824a.93.93,0,0,0-1.047-1.025,1.148,1.148,0,0,0-1.112.638V394.2h-1.3v-5.811Z" fill="#fff"/>
        <path id="Path_462" data-name="Path 462" d="M955.584,394.2a.847.847,0,1,0-1.675.108,2.047,2.047,0,0,1-1.429-.5,1.6,1.6,0,0,1-.553-1.235,1.652,1.652,0,0,1,.69-1.427,3.346,3.346,0,0,1,1.974-.5h.8v-.38a1.02,1.02,0,0,0-.252-.723,1,1,0,0,0-.768-.272,1.154,1.154,0,0,0-.731.224.688.688,0,0,0-.285.566h-1.3a1.45,1.45,0,0,1,.317-.894,2.117,2.117,0,0,1,.862-.652,3.023,3.023,0,0,1,1.217-.237,2.438,2.438,0,0,1,1.627.513,1.826,1.826,0,0,1,.623,1.442v2.621a2.959,2.959,0,0,0,.221,1.251v.092Zm-1.434-.939a1.488,1.488,0,0,0,.728-.189,1.261,1.261,0,0,0,.513-.505v-1.1h-.7a1.927,1.927,0,0,0-1.09.252.82.82,0,0,0-.365.714.763.763,0,0,0,.249.6A.968.968,0,0,0,954.15,393.261Z" fill="#fff"/>
        <path id="Path_463" data-name="Path 463" d="M963.152,391.354a3.462,3.462,0,0,1-.612,2.151,2.126,2.126,0,0,1-3.174.174v2.756h-1.305v-8.046h1.2l.053.59a1.921,1.921,0,0,1,1.563-.7,1.981,1.981,0,0,1,1.668.792,3.554,3.554,0,0,1,.6,2.2Zm-1.3-.113a2.425,2.425,0,0,0-.347-1.381,1.127,1.127,0,0,0-.991-.509,1.2,1.2,0,0,0-1.149.66v2.578a1.212,1.212,0,0,0,1.16.677,1.126,1.126,0,0,0,.975-.5A2.675,2.675,0,0,0,961.853,391.241Z" fill="#fff"/>
        <path id="Path_464" data-name="Path 464" d="M969.345,391.354a3.456,3.456,0,0,1-.613,2.151,2.125,2.125,0,0,1-3.173.174v2.756h-1.306v-8.046h1.2l.054.59a1.919,1.919,0,0,1,1.563-.7,1.979,1.979,0,0,1,1.667.792,3.548,3.548,0,0,1,.6,2.2Zm-1.3-.113a2.418,2.418,0,0,0-.347-1.381,1.125,1.125,0,0,0-.99-.509,1.2,1.2,0,0,0-1.149.66v2.578a1.212,1.212,0,0,0,1.16.677,1.123,1.123,0,0,0,.974-.5A2.667,2.667,0,0,0,968.045,391.241Z" fill="#fff"/>
        <path id="Path_465" data-name="Path 465" d="M970.634,395.962l-.7-.419a3.794,3.794,0,0,0,.426-.852,2.514,2.514,0,0,0,.122-.738v-1.015h1.175l-.005.94a2.614,2.614,0,0,1-.287,1.142A2.836,2.836,0,0,1,970.634,395.962Z" fill="#fff"/>
        <path id="Path_466" data-name="Path 466" d="M980.71,392.4l.924-4.012h1.273l-1.585,5.811h-1.074L979,390.21l-1.225,3.99H976.7l-1.59-5.811h1.274l.939,3.969,1.193-3.969h.983Z" fill="#fff"/>
        <path id="Path_467" data-name="Path 467" d="M986.339,394.308a2.7,2.7,0,0,1-2.011-.782,2.83,2.83,0,0,1-.771-2.082v-.16a3.486,3.486,0,0,1,.336-1.555,2.548,2.548,0,0,1,.942-1.066,2.487,2.487,0,0,1,1.353-.382,2.284,2.284,0,0,1,1.835.757,3.209,3.209,0,0,1,.647,2.144v.526h-3.8a1.741,1.741,0,0,0,.481,1.139,1.443,1.443,0,0,0,1.06.419,1.765,1.765,0,0,0,1.461-.726l.7.672a2.355,2.355,0,0,1-.932.809A2.925,2.925,0,0,1,986.339,394.308Zm-.155-4.979a1.1,1.1,0,0,0-.868.375,1.949,1.949,0,0,0-.421,1.048h2.486v-.1a1.585,1.585,0,0,0-.349-.991A1.089,1.089,0,0,0,986.184,389.329Z" fill="#fff"/>
        <path id="Path_468" data-name="Path 468" d="M994.782,391.354a3.487,3.487,0,0,1-.6,2.153,1.967,1.967,0,0,1-1.662.8,1.894,1.894,0,0,1-1.59-.737l-.065.629H989.68v-8.25h1.3v3a1.89,1.89,0,0,1,1.52-.666,1.991,1.991,0,0,1,1.671.79,3.551,3.551,0,0,1,.606,2.207Zm-1.3-.113a2.473,2.473,0,0,0-.333-1.418,1.111,1.111,0,0,0-.967-.472,1.211,1.211,0,0,0-1.193.74v2.4a1.226,1.226,0,0,0,1.2.757,1.1,1.1,0,0,0,.946-.456,2.409,2.409,0,0,0,.344-1.381Z" fill="#fff"/>
        <path id="Path_469" data-name="Path 469" d="M996.061,395.962l-.7-.419a3.8,3.8,0,0,0,.427-.852,2.545,2.545,0,0,0,.121-.738v-1.015h1.176l-.005.94a2.628,2.628,0,0,1-.287,1.142A2.849,2.849,0,0,1,996.061,395.962Z" fill="#fff"/>
        <path id="Path_470" data-name="Path 470" d="M1002.259,388.389l.038.606a2.1,2.1,0,0,1,1.676-.714,1.6,1.6,0,0,1,1.594.892,2.062,2.062,0,0,1,1.784-.892,1.809,1.809,0,0,1,1.431.532,2.336,2.336,0,0,1,.481,1.569V394.2h-1.3v-3.781a1.156,1.156,0,0,0-.242-.811,1.061,1.061,0,0,0-.8-.257,1.087,1.087,0,0,0-.728.238,1.258,1.258,0,0,0-.395.626l.006,3.985h-1.306v-3.824a.93.93,0,0,0-1.047-1.025,1.149,1.149,0,0,0-1.112.638V394.2h-1.3v-5.811Z" fill="#fff"/>
        <path id="Path_471" data-name="Path 471" d="M1010.358,391.241a3.431,3.431,0,0,1,.339-1.539,2.476,2.476,0,0,1,.95-1.053,2.686,2.686,0,0,1,1.408-.368,2.544,2.544,0,0,1,1.91.757,2.989,2.989,0,0,1,.792,2.01l.005.306a3.462,3.462,0,0,1-.33,1.536,2.442,2.442,0,0,1-.946,1.047,2.689,2.689,0,0,1-1.421.371,2.519,2.519,0,0,1-1.967-.82,3.127,3.127,0,0,1-.74-2.182Zm1.306.113a2.342,2.342,0,0,0,.37,1.4,1.293,1.293,0,0,0,2.061-.008,2.589,2.589,0,0,0,.367-1.509,2.31,2.31,0,0,0-.378-1.4,1.211,1.211,0,0,0-1.029-.516,1.2,1.2,0,0,0-1.015.507A2.539,2.539,0,0,0,1011.664,391.354Z" fill="#fff"/>
        <path id="Path_472" data-name="Path 472" d="M1021.966,391.354a3.481,3.481,0,0,1-.6,2.153,1.967,1.967,0,0,1-1.662.8,1.893,1.893,0,0,1-1.59-.737l-.064.629h-1.182v-8.25h1.305v3a1.89,1.89,0,0,1,1.52-.666,1.988,1.988,0,0,1,1.67.79,3.538,3.538,0,0,1,.608,2.207Zm-1.306-.113a2.458,2.458,0,0,0-.333-1.418,1.109,1.109,0,0,0-.967-.472,1.211,1.211,0,0,0-1.192.74v2.4a1.226,1.226,0,0,0,1.2.757,1.1,1.1,0,0,0,.945-.456,2.385,2.385,0,0,0,.344-1.381Z" fill="#fff"/>
        <path id="Path_473" data-name="Path 473" d="M1023.062,386.88a.694.694,0,0,1,.19-.5.718.718,0,0,1,.545-.2.729.729,0,0,1,.548.2.688.688,0,0,1,.193.5.672.672,0,0,1-.193.491.735.735,0,0,1-.548.2.724.724,0,0,1-.545-.2A.677.677,0,0,1,1023.062,386.88Zm1.385,7.32h-1.3v-5.811h1.3Z" fill="#fff"/>
        <path id="Path_474" data-name="Path 474" d="M1027.256,394.2h-1.3v-8.25h1.3Z" fill="#fff"/>
        <path id="Path_475" data-name="Path 475" d="M1031.236,394.308a2.7,2.7,0,0,1-2.011-.782,2.834,2.834,0,0,1-.771-2.082v-.16a3.486,3.486,0,0,1,.335-1.555,2.558,2.558,0,0,1,.943-1.066,2.488,2.488,0,0,1,1.354-.382,2.284,2.284,0,0,1,1.834.757,3.2,3.2,0,0,1,.647,2.144v.526h-3.8a1.755,1.755,0,0,0,.48,1.139,1.446,1.446,0,0,0,1.062.419,1.766,1.766,0,0,0,1.46-.726l.7.672a2.347,2.347,0,0,1-.932.809A2.925,2.925,0,0,1,1031.236,394.308Zm-.156-4.979a1.1,1.1,0,0,0-.867.375,1.956,1.956,0,0,0-.422,1.048h2.487v-.1a1.591,1.591,0,0,0-.349-.991A1.09,1.09,0,0,0,1031.08,389.329Z" fill="#fff"/>
        <path id="Path_476" data-name="Path 476" d="M1034.765,395.962l-.7-.419a3.8,3.8,0,0,0,.426-.852,2.549,2.549,0,0,0,.121-.738v-1.015h1.176l-.005.94a2.629,2.629,0,0,1-.287,1.142A2.836,2.836,0,0,1,1034.765,395.962Z" fill="#fff"/>
        <path id="Path_477" data-name="Path 477" d="M1044.433,390.709h-3.212v2.406h3.755V394.2h-5.114v-7.82h5.076v1.1h-3.717v2.159h3.212Z" fill="#fff"/>
        <path id="Path_478" data-name="Path 478" d="M1048.772,389.2l1.644-2.825h1.568l-2.363,3.878,2.417,3.942h-1.584l-1.682-2.868-1.686,2.868h-1.579l2.423-3.942-2.369-3.878h1.568Z" fill="#fff"/>
        <path id="Path_479" data-name="Path 479" d="M1057.613,390.709H1054.4v2.406h3.755V394.2h-5.113v-7.82h5.075v1.1H1054.4v2.159h3.212Z" fill="#fff"/>
        <path id="Path_480" data-name="Path 480" d="M1064.435,394.308a2.7,2.7,0,0,1-2.011-.782,2.831,2.831,0,0,1-.772-2.082v-.16a3.5,3.5,0,0,1,.336-1.555,2.55,2.55,0,0,1,.943-1.066,2.487,2.487,0,0,1,1.353-.382,2.284,2.284,0,0,1,1.835.757,3.209,3.209,0,0,1,.647,2.144v.526h-3.8a1.746,1.746,0,0,0,.48,1.139,1.445,1.445,0,0,0,1.061.419,1.767,1.767,0,0,0,1.461-.726l.7.672a2.362,2.362,0,0,1-.932.809A2.928,2.928,0,0,1,1064.435,394.308Zm-.156-4.979a1.1,1.1,0,0,0-.867.375,1.95,1.95,0,0,0-.422,1.048h2.487v-.1a1.592,1.592,0,0,0-.349-.991A1.09,1.09,0,0,0,1064.279,389.329Z" fill="#fff"/>
        <path id="Path_481" data-name="Path 481" d="M1069.414,386.976v1.413h1.025v.966h-1.025V392.6a.719.719,0,0,0,.131.48.61.61,0,0,0,.471.148,2.054,2.054,0,0,0,.456-.053v1.01a3.224,3.224,0,0,1-.86.123q-1.5,0-1.5-1.661v-3.292h-.956v-.966h.956v-1.413Z" fill="#fff"/>
        <path id="Path_482" data-name="Path 482" d="M1073.823,393.266a1.182,1.182,0,0,0,.812-.285.975.975,0,0,0,.344-.7h1.229a1.916,1.916,0,0,1-.338,1.013,2.227,2.227,0,0,1-.859.744,2.573,2.573,0,0,1-1.171.274,2.481,2.481,0,0,1-1.934-.789,3.139,3.139,0,0,1-.715-2.182V391.2a3.079,3.079,0,0,1,.709-2.124,2.456,2.456,0,0,1,1.934-.8,2.381,2.381,0,0,1,1.689.6,2.156,2.156,0,0,1,.685,1.587h-1.229a1.2,1.2,0,0,0-.341-.822,1.1,1.1,0,0,0-.815-.322,1.146,1.146,0,0,0-.977.459,2.341,2.341,0,0,0-.349,1.394v.21a2.377,2.377,0,0,0,.341,1.409A1.149,1.149,0,0,0,1073.823,393.266Z" fill="#fff"/>
        <path id="Path_483" data-name="Path 483" d="M1078.008,392.825a.747.747,0,0,1,.563.207.718.718,0,0,1,.2.518.691.691,0,0,1-.2.508.882.882,0,0,1-1.117,0,.683.683,0,0,1-.2-.511.717.717,0,0,1,.2-.518A.742.742,0,0,1,1078.008,392.825Z" fill="#fff"/>
        <path id="Path_484" data-name="Path 484" d="M1081.08,392.825a.749.749,0,0,1,.564.207.721.721,0,0,1,.2.518.7.7,0,0,1-.2.508.883.883,0,0,1-1.118,0,.687.687,0,0,1-.2-.511.721.721,0,0,1,.2-.518A.742.742,0,0,1,1081.08,392.825Z" fill="#fff"/>
        <path id="Path_485" data-name="Path 485" d="M1084.152,392.825a.747.747,0,0,1,.564.207.717.717,0,0,1,.2.518.69.69,0,0,1-.2.508.881.881,0,0,1-1.117,0,.683.683,0,0,1-.2-.511.717.717,0,0,1,.2-.518A.739.739,0,0,1,1084.152,392.825Z" fill="#fff"/>
      </g>
    </g>
    <g id="Sending_order_from_API" data-name="Sending order from API" style="isolation: isolate">
      <g id="Group_96" data-name="Group 96" style="isolation: isolate">
        <path id="Path_486" data-name="Path 486" d="M765.934,442.474a.944.944,0,0,0-.364-.8,4.323,4.323,0,0,0-1.307-.564,6.371,6.371,0,0,1-1.5-.634,2.007,2.007,0,0,1-1.069-1.751,1.907,1.907,0,0,1,.771-1.558,3.122,3.122,0,0,1,2-.612,3.385,3.385,0,0,1,1.455.3,2.388,2.388,0,0,1,1.005.856,2.207,2.207,0,0,1,.365,1.234h-1.353a1.221,1.221,0,0,0-.385-.959,1.579,1.579,0,0,0-1.1-.347,1.66,1.66,0,0,0-1.034.284.951.951,0,0,0-.368.8.861.861,0,0,0,.4.718,4.587,4.587,0,0,0,1.311.558,6.054,6.054,0,0,1,1.467.618,2.337,2.337,0,0,1,.81.795,2.065,2.065,0,0,1,.258,1.049,1.863,1.863,0,0,1-.749,1.556,3.25,3.25,0,0,1-2.033.577,3.816,3.816,0,0,1-1.561-.314,2.622,2.622,0,0,1-1.106-.867,2.167,2.167,0,0,1-.4-1.289h1.36a1.262,1.262,0,0,0,.44,1.031,1.93,1.93,0,0,0,1.262.365,1.68,1.68,0,0,0,1.066-.287A.929.929,0,0,0,765.934,442.474Z" fill="#fff"/>
        <path id="Path_487" data-name="Path 487" d="M770.918,444.6a2.705,2.705,0,0,1-2.012-.781,2.84,2.84,0,0,1-.77-2.082v-.16a3.491,3.491,0,0,1,.335-1.556,2.553,2.553,0,0,1,.943-1.065,2.486,2.486,0,0,1,1.354-.382,2.284,2.284,0,0,1,1.834.757,3.206,3.206,0,0,1,.647,2.143V442h-3.8a1.748,1.748,0,0,0,.481,1.138,1.439,1.439,0,0,0,1.061.419,1.766,1.766,0,0,0,1.461-.725l.7.672a2.343,2.343,0,0,1-.931.808A2.915,2.915,0,0,1,770.918,444.6Zm-.156-4.978a1.1,1.1,0,0,0-.867.375,1.946,1.946,0,0,0-.422,1.048h2.487v-.1a1.587,1.587,0,0,0-.35-.991A1.087,1.087,0,0,0,770.762,439.617Z" fill="#fff"/>
        <path id="Path_488" data-name="Path 488" d="M775.473,438.676l.037.671a2.092,2.092,0,0,1,1.692-.778q1.815,0,1.848,2.079v3.84h-1.306v-3.766a1.2,1.2,0,0,0-.238-.818,1,1,0,0,0-.782-.266,1.255,1.255,0,0,0-1.176.714v4.136h-1.306v-5.812Z" fill="#fff"/>
        <path id="Path_489" data-name="Path 489" d="M780.135,441.539a3.454,3.454,0,0,1,.623-2.157,2,2,0,0,1,1.67-.813,1.9,1.9,0,0,1,1.493.644v-2.975h1.306v8.25h-1.182l-.065-.6a1.922,1.922,0,0,1-1.563.709,1.982,1.982,0,0,1-1.651-.822A3.576,3.576,0,0,1,780.135,441.539Zm1.3.113a2.429,2.429,0,0,0,.341,1.383,1.109,1.109,0,0,0,.97.5,1.234,1.234,0,0,0,1.171-.714v-2.483a1.214,1.214,0,0,0-1.16-.7,1.116,1.116,0,0,0-.978.5A2.7,2.7,0,0,0,781.439,441.652Z" fill="#fff"/>
        <path id="Path_490" data-name="Path 490" d="M786.591,437.167a.694.694,0,0,1,.19-.5.722.722,0,0,1,.545-.2.732.732,0,0,1,.548.2.688.688,0,0,1,.193.5.673.673,0,0,1-.193.492.735.735,0,0,1-.548.2.725.725,0,0,1-.545-.2A.678.678,0,0,1,786.591,437.167Zm1.386,7.321h-1.306v-5.812h1.306Z" fill="#fff"/>
        <path id="Path_491" data-name="Path 491" d="M790.608,438.676l.038.671a2.092,2.092,0,0,1,1.692-.778q1.815,0,1.848,2.079v3.84H792.88v-3.766a1.2,1.2,0,0,0-.238-.818,1.007,1.007,0,0,0-.783-.266,1.254,1.254,0,0,0-1.175.714v4.136h-1.306v-5.812Z" fill="#fff"/>
        <path id="Path_492" data-name="Path 492" d="M795.286,441.539a3.4,3.4,0,0,1,.637-2.162,2.041,2.041,0,0,1,1.689-.808,1.916,1.916,0,0,1,1.563.692l.059-.585h1.176v5.634a2.338,2.338,0,0,1-.712,1.8,2.7,2.7,0,0,1-1.92.661,3.11,3.11,0,0,1-1.249-.266,2.2,2.2,0,0,1-.925-.7l.617-.783a1.868,1.868,0,0,0,1.482.714,1.442,1.442,0,0,0,1.026-.352,1.35,1.35,0,0,0,.376-1.034v-.393a1.917,1.917,0,0,1-1.5.629,2.038,2.038,0,0,1-1.668-.81A3.508,3.508,0,0,1,795.286,441.539Zm1.3.113a2.342,2.342,0,0,0,.357,1.378,1.15,1.15,0,0,0,.992.5,1.255,1.255,0,0,0,1.17-.677V440.3a1.237,1.237,0,0,0-1.16-.66,1.156,1.156,0,0,0-1,.51A2.622,2.622,0,0,0,796.586,441.652Z" fill="#fff"/>
        <path id="Path_493" data-name="Path 493" d="M804.245,441.529a3.416,3.416,0,0,1,.339-1.539,2.47,2.47,0,0,1,.95-1.053,2.682,2.682,0,0,1,1.407-.368,2.546,2.546,0,0,1,1.911.757,2.986,2.986,0,0,1,.792,2.009l0,.306a3.445,3.445,0,0,1-.33,1.536,2.427,2.427,0,0,1-.945,1.047,2.691,2.691,0,0,1-1.421.371,2.522,2.522,0,0,1-1.968-.819,3.134,3.134,0,0,1-.739-2.183Zm1.306.112a2.338,2.338,0,0,0,.37,1.4,1.293,1.293,0,0,0,2.06-.007,2.582,2.582,0,0,0,.368-1.509,2.315,2.315,0,0,0-.378-1.4,1.213,1.213,0,0,0-1.03-.515,1.2,1.2,0,0,0-1.014.507A2.534,2.534,0,0,0,805.551,441.641Z" fill="#fff"/>
        <path id="Path_494" data-name="Path 494" d="M813.795,439.869a3.19,3.19,0,0,0-.531-.043,1.2,1.2,0,0,0-1.209.687v3.975h-1.3v-5.812H812l.032.65a1.472,1.472,0,0,1,1.311-.757,1.23,1.23,0,0,1,.462.075Z" fill="#fff"/>
        <path id="Path_495" data-name="Path 495" d="M814.273,441.539a3.454,3.454,0,0,1,.623-2.157,2,2,0,0,1,1.67-.813,1.9,1.9,0,0,1,1.494.644v-2.975h1.3v8.25h-1.181l-.065-.6a1.922,1.922,0,0,1-1.563.709,1.984,1.984,0,0,1-1.652-.822A3.576,3.576,0,0,1,814.273,441.539Zm1.3.113a2.421,2.421,0,0,0,.341,1.383,1.108,1.108,0,0,0,.97.5,1.235,1.235,0,0,0,1.171-.714v-2.483a1.215,1.215,0,0,0-1.161-.7,1.115,1.115,0,0,0-.977.5A2.7,2.7,0,0,0,815.578,441.652Z" fill="#fff"/>
        <path id="Path_496" data-name="Path 496" d="M823.286,444.6a2.705,2.705,0,0,1-2.012-.781,2.84,2.84,0,0,1-.77-2.082v-.16a3.491,3.491,0,0,1,.335-1.556,2.554,2.554,0,0,1,.943-1.065,2.488,2.488,0,0,1,1.354-.382,2.284,2.284,0,0,1,1.834.757,3.206,3.206,0,0,1,.647,2.143V442h-3.8a1.754,1.754,0,0,0,.481,1.138,1.441,1.441,0,0,0,1.061.419,1.766,1.766,0,0,0,1.461-.725l.7.672a2.343,2.343,0,0,1-.931.808A2.912,2.912,0,0,1,823.286,444.6Zm-.156-4.978a1.1,1.1,0,0,0-.867.375,1.946,1.946,0,0,0-.422,1.048h2.487v-.1a1.587,1.587,0,0,0-.349-.991A1.091,1.091,0,0,0,823.13,439.617Z" fill="#fff"/>
        <path id="Path_497" data-name="Path 497" d="M829.672,439.869a3.19,3.19,0,0,0-.531-.043,1.2,1.2,0,0,0-1.209.687v3.975h-1.3v-5.812h1.246l.032.65a1.472,1.472,0,0,1,1.311-.757,1.23,1.23,0,0,1,.462.075Z" fill="#fff"/>
        <path id="Path_498" data-name="Path 498" d="M833.7,444.488v-4.845h-.886v-.967h.886v-.532a1.993,1.993,0,0,1,.537-1.492,2.054,2.054,0,0,1,1.5-.527,3.046,3.046,0,0,1,.731.1l-.032,1.02a2.553,2.553,0,0,0-.5-.043.839.839,0,0,0-.935.962v.515h1.182v.967H835v4.845Z" fill="#fff"/>
        <path id="Path_499" data-name="Path 499" d="M840.178,439.869a3.193,3.193,0,0,0-.532-.043,1.2,1.2,0,0,0-1.209.687v3.975h-1.3v-5.812h1.246l.032.65a1.472,1.472,0,0,1,1.311-.757,1.23,1.23,0,0,1,.462.075Z" fill="#fff"/>
        <path id="Path_500" data-name="Path 500" d="M840.564,441.529a3.429,3.429,0,0,1,.339-1.539,2.466,2.466,0,0,1,.951-1.053,2.68,2.68,0,0,1,1.407-.368,2.544,2.544,0,0,1,1.91.757,2.987,2.987,0,0,1,.792,2.009l.005.306a3.459,3.459,0,0,1-.33,1.536,2.429,2.429,0,0,1-.946,1.047,2.689,2.689,0,0,1-1.421.371,2.519,2.519,0,0,1-1.967-.819,3.134,3.134,0,0,1-.74-2.183Zm1.306.112a2.338,2.338,0,0,0,.37,1.4,1.294,1.294,0,0,0,2.061-.007,2.589,2.589,0,0,0,.367-1.509,2.315,2.315,0,0,0-.378-1.4,1.212,1.212,0,0,0-1.029-.515,1.2,1.2,0,0,0-1.015.507A2.534,2.534,0,0,0,841.87,441.641Z" fill="#fff"/>
        <path id="Path_501" data-name="Path 501" d="M848.3,438.676l.038.607a2.092,2.092,0,0,1,1.676-.714,1.605,1.605,0,0,1,1.594.891,2.064,2.064,0,0,1,1.784-.891,1.809,1.809,0,0,1,1.431.532,2.335,2.335,0,0,1,.481,1.568v3.819H854v-3.781a1.155,1.155,0,0,0-.242-.811,1.057,1.057,0,0,0-.8-.258,1.083,1.083,0,0,0-.727.238,1.261,1.261,0,0,0-.4.626l.006,3.986h-1.306v-3.824a.931.931,0,0,0-1.047-1.026,1.15,1.15,0,0,0-1.112.639v4.211h-1.305v-5.812Z" fill="#fff"/>
        <path id="Path_502" data-name="Path 502" d="M863.886,442.667h-3.03l-.633,1.821h-1.412l2.954-7.821h1.218l2.96,7.821h-1.418Zm-2.648-1.1h2.267l-1.134-3.244Z" fill="#fff"/>
        <path id="Path_503" data-name="Path 503" d="M868.188,441.587v2.9h-1.359v-7.821h2.992a3.025,3.025,0,0,1,2.081.683,2.3,2.3,0,0,1,.771,1.807,2.219,2.219,0,0,1-.755,1.791,3.168,3.168,0,0,1-2.113.639Zm0-1.1h1.633a1.612,1.612,0,0,0,1.107-.341,1.255,1.255,0,0,0,.381-.985,1.352,1.352,0,0,0-.387-1.013,1.488,1.488,0,0,0-1.064-.39h-1.67Z" fill="#fff"/>
        <path id="Path_504" data-name="Path 504" d="M875.294,444.488H873.94v-7.821h1.354Z" fill="#fff"/>
      </g>
    </g>
    <g id="Path_312" data-name="Path 312">
      <path id="Path_505" data-name="Path 505" d="M748.4,431.86v20.747H878.569V523.13" fill="none" stroke="#ffbc2a" stroke-miterlimit="10" stroke-width="2"/>
      <g id="Group_97" data-name="Group 97">
        <path id="Path_506" data-name="Path 506" d="M748.4,424.618a36.258,36.258,0,0,1-5.707,10.257l5.707-2.064,5.706,2.064A36.232,36.232,0,0,1,748.4,424.618Z" fill="#ffbc2a"/>
      </g>
    </g>
    <g id="Line_11" data-name="Line 11">
      <line id="Line_13" data-name="Line 13" y2="52.951" transform="translate(944.567 402.285)" fill="none" stroke="#93be27" stroke-miterlimit="10" stroke-width="2"/>
      <g id="Group_98" data-name="Group 98">
        <path id="Path_507" data-name="Path 507" d="M944.567,462.478a36.258,36.258,0,0,0-5.707-10.257l5.707,2.064,5.706-2.064A36.23,36.23,0,0,0,944.567,462.478Z" fill="#93be27"/>
      </g>
    </g>
    <g id="Path_313" data-name="Path 313">
      <path id="Path_508" data-name="Path 508" d="M896.044,402.285h180.6v21.3" fill="none" stroke="#93be27" stroke-miterlimit="10" stroke-width="2"/>
      <g id="Group_99" data-name="Group 99">
        <path id="Path_509" data-name="Path 509" d="M1076.644,430.823a36.258,36.258,0,0,0-5.707-10.257l5.707,2.064,5.706-2.064A36.229,36.229,0,0,0,1076.644,430.823Z" fill="#93be27"/>
      </g>
    </g>
    <g id="Group_108" data-name="Group 108">
      <g id="Group_24" data-name="Group 24">
        <g id="Group_23" data-name="Group 23">
          <g id="Group_22" data-name="Group 22">
            <path id="Path_96" data-name="Path 96" d="M1036.532,420.7l8.025-4.621v.014a1.21,1.21,0,0,1,1.19.108l69.116,39.9a4.506,4.506,0,0,1,1.882,3.6V629.361a1.639,1.639,0,0,1-.666,1.516l.011.007-8.02,4.619-.176-8.742-62.146-35.881a4.5,4.5,0,0,1-1.882-3.6V424.83c-.162.509-.284.881-.3.892C1043.5,425.762,1036.532,420.7,1036.532,420.7Z" fill="url(#linear-gradient)"/>
            <path id="Path_97" data-name="Path 97" d="M1116.7,459.125l-20.883,12.055-3.156-1.822,22.539-13.014A4.673,4.673,0,0,1,1116.7,459.125Z" fill="url(#linear-gradient-2)"/>
            <path id="Path_98" data-name="Path 98" d="M1037.774,595.472l69.119,39.9c1.039.6,1.882-.036,1.882-1.422V464.3a4.51,4.51,0,0,0-1.882-3.6l-69.119-39.9c-1.039-.6-1.882.036-1.882,1.423V591.877A4.506,4.506,0,0,0,1037.774,595.472Z" fill="url(#linear-gradient-3)"/>
            <path id="Path_99" data-name="Path 99" d="M1106.89,460.7l-69.116-39.9a1.1,1.1,0,0,0-1.505.147,1.324,1.324,0,0,1,1.005.186l69.116,39.9a4.506,4.506,0,0,1,1.882,3.6V634.29a1.977,1.977,0,0,1-.377,1.274c.525-.141.877-.716.877-1.608V464.3A4.51,4.51,0,0,0,1106.89,460.7Z" fill="#fff"/>
            <path id="Path_100" data-name="Path 100" d="M1035.89,583.272l72.876,42.077V472.9l-72.876-42.077Z" fill="#121c55"/>
            <path id="Path_101" data-name="Path 101" d="M1035.89,583.272l72.876,42.077V472.9l-72.876-42.077Z" fill="#121c55"/>
            <path id="Path_102" data-name="Path 102" d="M1035.89,580.28l72.876,42.077V475.874L1035.89,433.8Z" fill="#263289" opacity="0.51" style="isolation: isolate"/>
            <path id="Path_103" data-name="Path 103" d="M1066.654,444.551l13.183,7.638c.385.222.713.289.855-.073a1.183,1.183,0,0,0,.074-.445h0a2.227,2.227,0,0,0-.928-1.78l-13.325-7.691c-.041-.022-.079-.069-.12-.059-.418.117-.488.2-.488.836l.06.177A1.4,1.4,0,0,0,1066.654,444.551Z" fill="#3a519f"/>
            <path id="Path_104" data-name="Path 104" d="M1066.39,442.147a1.205,1.205,0,0,0-.074.441,2.234,2.234,0,0,0,.929,1.781l13.323,7.691a.88.88,0,0,0,.121.054.543.543,0,0,1-.682.355.532.532,0,0,1-.176-.093l-13.323-7.692a2.228,2.228,0,0,1-.928-1.779C1065.582,442.274,1065.936,441.963,1066.39,442.147Z" fill="#acaed7"/>
            <g id="Group_20" data-name="Group 20">
              <path id="Path_105" data-name="Path 105" d="M1113.024,477.345l.15-.087a.644.644,0,0,1,.641-.056h0l.565.325-.278.022a1.332,1.332,0,0,1,.081.48v9.1a2.42,2.42,0,0,1-1.01,1.929l-.151.086a.87.87,0,0,1-.206.093l.146.307-.6-.346h.012a.881.881,0,0,1-.358-.814v-9.1A2.413,2.413,0,0,1,1113.024,477.345Z" fill="#e1e2f1"/>
              <path id="Path_106" data-name="Path 106" d="M1113.6,489.469l.149-.087a2.414,2.414,0,0,0,1.008-1.928v-9.1c0-.742-.453-1.085-1.011-.763l-.149.087a2.414,2.414,0,0,0-1.01,1.929v9.1C1112.59,489.45,1113.04,489.791,1113.6,489.469Z" fill="#acaed7"/>
            </g>
            <g id="Group_21" data-name="Group 21">
              <path id="Path_107" data-name="Path 107" d="M1113.024,491.239l.15-.088a.646.646,0,0,1,.641-.055v-.011l.565.324-.278.023a1.332,1.332,0,0,1,.081.48v9.106a2.42,2.42,0,0,1-1.01,1.929l-.151.086a.869.869,0,0,1-.206.093l.146.307-.6-.346h.012a.88.88,0,0,1-.358-.812v-9.1A2.414,2.414,0,0,1,1113.024,491.239Z" fill="#e1e2f1"/>
              <path id="Path_108" data-name="Path 108" d="M1113.6,503.363l.149-.087a2.414,2.414,0,0,0,1.01-1.929v-9.1c0-.743-.452-1.085-1.01-.763l-.149.086a2.42,2.42,0,0,0-1.01,1.93v9.1C1112.59,503.344,1113.04,503.685,1113.6,503.363Z" fill="#acaed7"/>
            </g>
          </g>
        </g>
      </g>
      <g id="Group_88" data-name="Group 88">
        <g id="Group_82" data-name="Group 82">
          <g id="Group_101" data-name="Group 101" clip-path="url(#clip-path)">
            <g id="Group_42" data-name="Group 42">
              <g id="Group_81" data-name="Group 81">
                <g id="Group_39" data-name="Group 39" opacity="0.11">
                  <g id="Group_38" data-name="Group 38">
                    <g id="Group_37" data-name="Group 37">
                      <g id="Group_29" data-name="Group 29">
                        <g id="Group_26" data-name="Group 26">
                          <path id="Path_109" data-name="Path 109" d="M1183,464.773l-20.01-118.721,1.61-.679-2.414-1.385V344a1.738,1.738,0,0,0-1.863.128L1000.39,436.464a4.519,4.519,0,0,0-2.076,4.063l20.176,119.666a1.5,1.5,0,0,0,.843,1.217h0l2.367,1.367.4-2.208-.134.04,158.958-91.774A4.516,4.516,0,0,0,1183,464.773Z" fill="url(#linear-gradient-4)"/>
                          <path id="Path_110" data-name="Path 110" d="M1001.285,439.71l-2.629-1.163a3.612,3.612,0,0,0-.339,1.979l20.173,119.666a1.5,1.5,0,0,0,.843,1.217h0l2.367,1.367.4-2.208-.134.041,8.043-4.642Z" fill="url(#linear-gradient-5)"/>
                          <path id="Path_111" data-name="Path 111" d="M1183.433,470.277l-159.927,92.331c-1.235.714-2.292.3-2.507-.976l-20.173-119.67a4.514,4.514,0,0,1,2.077-4.062l159.928-92.335c1.235-.713,2.293-.3,2.507.978l20.171,119.665A4.519,4.519,0,0,1,1183.433,470.277Z" fill="#121c55"/>
                          <g id="Group_25" data-name="Group 25" opacity="0.51">
                            <path id="Path_112" data-name="Path 112" d="M1160.74,353.207l-154.158,89,19.117,112.7,154.054-88.937Z" fill="#263289"/>
                          </g>
                        </g>
                        <g id="Group_28" data-name="Group 28">
                          <path id="Path_113" data-name="Path 113" d="M1283.964,526.93l-8.727,4.558-87.516-50.528a6.35,6.35,0,0,0-5.712.237l-150.942,87.148c-1.445-.808-8.031-3.975-8.031-3.975l3.2,8.324.013-.009a1.89,1.89,0,0,0,.892.99l92.173,53.212a6.347,6.347,0,0,0,5.712-.237l154.46-89.177a2.763,2.763,0,0,0,1.3-1.378l.013.008Z" fill="url(#linear-gradient-6)"/>
                          <path id="Path_114" data-name="Path 114" d="M1282.614,528.364l-158.3,91.394a6.507,6.507,0,0,1-5.855.242l-94.469-54.539c-1.5-.865-1.311-2.379.42-3.379l158.3-91.4a6.505,6.505,0,0,1,5.854-.243l94.466,54.54C1284.536,525.849,1284.347,527.362,1282.614,528.364Z" fill="url(#linear-gradient-7)"/>
                          <path id="Path_115" data-name="Path 115" d="M1048.623,560.354,1180.171,484.4a2.837,2.837,0,0,1,2.835,0l46.844,27.1a1.011,1.011,0,0,1,0,1.749l-131.486,75.922a2.832,2.832,0,0,1-2.832,0L1048.623,562.1a1.011,1.011,0,0,1,0-1.75Z" fill="#9aa1d0"/>
                          <path id="Path_116" data-name="Path 116" d="M1048.623,562.1l.471.271L1180.17,486.7a2.832,2.832,0,0,1,2.835,0l46.372,26.83.471-.271a1.01,1.01,0,0,0,0-1.749L1183,484.408a2.835,2.835,0,0,0-2.834,0l-131.549,75.946a1.01,1.01,0,0,0,0,1.75Z" fill="#7985c1"/>
                          <g id="Group_27" data-name="Group 27">
                            <path id="Path_117" data-name="Path 117" d="M1186.54,491.27l-123,71.011-3.559-3.814,121.474-70.13Z" fill="#121c55"/>
                            <path id="Path_118" data-name="Path 118" d="M1199,498.461l-125.788,72.588-5.08-2.934,125.787-72.585Z" fill="#121c55"/>
                            <path id="Path_119" data-name="Path 119" d="M1207.109,503.145,1080.919,576l-5.081-2.934,126.192-72.857Z" fill="#121c55"/>
                            <path id="Path_120" data-name="Path 120" d="M1215.223,507.83l-126.192,72.857-5.081-2.934L1210.142,504.9Z" fill="#121c55"/>
                            <path id="Path_121" data-name="Path 121" d="M1223.334,512.514l-126.192,72.857-5.081-2.934,126.192-72.857Z" fill="#121c55"/>
                            <path id="Path_122" data-name="Path 122" d="M1065.367,561.23l-5.081,2.933-5.081-2.933,5.081-2.934Z" fill="#121c55"/>
                          </g>
                          <path id="Path_123" data-name="Path 123" d="M1185.237,578.73l35.469-20.479c1.386-.8,1.387-2.1,0-2.9l-24.255-14.005a5.55,5.55,0,0,0-5.02,0L1155.96,561.83c-1.386.8-1.386,2.1,0,2.9l24.255,14.005A5.554,5.554,0,0,0,1185.237,578.73Z" fill="url(#linear-gradient-8)"/>
                          <path id="Path_124" data-name="Path 124" d="M1155.96,563.017l35.47-20.478a5.55,5.55,0,0,1,5.02,0l24.255,14a2.17,2.17,0,0,1,.871.857c.372-.7.088-1.485-.871-2.042l-24.255-14a5.55,5.55,0,0,0-5.02,0l-35.47,20.477c-.958.557-1.238,1.342-.871,2.043A2.162,2.162,0,0,1,1155.96,563.017Z" fill="#7985c1"/>
                        </g>
                      </g>
                      <g id="Group_36" data-name="Group 36">
                        <g id="Group_35" data-name="Group 35">
                          <g id="Group_34" data-name="Group 34" opacity="0.11">
                            <g id="Group_100" data-name="Group 100" clip-path="url(#clip-path-2)">
                              <g id="Group_80" data-name="Group 80">
                                <g id="Group_33" data-name="Group 33">
                                  <g id="Group_32" data-name="Group 32">
                                    <path id="Path_125" data-name="Path 125" d="M1182.871,470.5l-158.3,91.4a6.505,6.505,0,0,1-5.854.243L924.252,507.6c-1.5-.866-1.313-2.38.42-3.381l158.3-91.392a6.5,6.5,0,0,1,5.854-.242l94.464,54.534C1184.79,467.984,1184.6,469.5,1182.871,470.5Z" fill="url(#linear-gradient-9)"/>
                                    <path id="Path_126" data-name="Path 126" d="M1024.1,486.885l35.47-20.479c1.385-.8,1.385-2.1,0-2.9L1035.315,449.5a5.546,5.546,0,0,0-5.021,0l-35.47,20.479c-1.387.8-1.387,2.1,0,2.9l24.256,14.005A5.544,5.544,0,0,0,1024.1,486.885Z" fill="url(#linear-gradient-10)"/>
                                    <path id="Path_127" data-name="Path 127" d="M994.823,471.168l35.467-20.478a5.546,5.546,0,0,1,5.021,0l24.255,14a2.174,2.174,0,0,1,.871.856c.371-.7.087-1.485-.871-2.042L1035.312,449.5a5.546,5.546,0,0,0-5.021,0l-35.47,20.479c-.958.557-1.237,1.341-.87,2.042A2.154,2.154,0,0,1,994.823,471.168Z" fill="#7985c1"/>
                                    <g id="Group_31" data-name="Group 31">
                                      <path id="Path_128" data-name="Path 128" d="M979.231,518.889l131.548-75.951a2.832,2.832,0,0,1,2.835,0l46.843,27.1a1.01,1.01,0,0,1,.368,1.38,1,1,0,0,1-.368.368l-131.488,75.919a2.83,2.83,0,0,1-2.831,0L979.23,520.637a1.01,1.01,0,0,1,0-1.748Z" fill="#9aa1d0"/>
                                      <path id="Path_129" data-name="Path 129" d="M979.231,520.638l.471.271,131.077-75.679a2.832,2.832,0,0,1,2.835,0l46.371,26.83.472-.272a1.011,1.011,0,0,0,0-1.749l-46.843-27.1a2.832,2.832,0,0,0-2.835,0L979.231,518.891a1.01,1.01,0,0,0,0,1.747Z" fill="#7985c1"/>
                                      <g id="Group_30" data-name="Group 30">
                                        <path id="Path_130" data-name="Path 130" d="M1148.2,468.194l-114.6,66.165,4.54,2.621,114.6-66.165Z" fill="#121c55"/>
                                        <path id="Path_131" data-name="Path 131" d="M1136.124,461.222,1027.2,524.111l4.54,2.621,108.927-62.889Z" fill="#121c55"/>
                                        <path id="Path_132" data-name="Path 132" d="M1019.062,528.807l-10.172,5.873,4.54,2.621,10.174-5.874Z" fill="#121c55"/>
                                        <path id="Path_133" data-name="Path 133" d="M1028.048,537.562l-7.084,4.09,4.54,2.621,7.083-4.09Z" fill="#121c55"/>
                                        <path id="Path_134" data-name="Path 134" d="M1128.557,456.853l-127.234,73.459,4.54,2.621L1133.1,459.475Z" fill="#121c55"/>
                                        <path id="Path_135" data-name="Path 135" d="M1120.99,452.485,993.756,525.944l4.539,2.621,127.235-73.458Z" fill="#121c55"/>
                                        <path id="Path_136" data-name="Path 136" d="M1113.422,448.117,986.19,521.576l4.539,2.62,127.235-73.46Z" fill="#121c55"/>
                                      </g>
                                    </g>
                                  </g>
                                </g>
                              </g>
                            </g>
                          </g>
                        </g>
                      </g>
                    </g>
                  </g>
                </g>
                <g id="Group_41" data-name="Group 41">
                  <g id="Group_40" data-name="Group 40">
                    <path id="Path_137" data-name="Path 137" d="M1066.552,507.041l-8.018-4.63v-1.763l8.018,4.629Z" fill="#5cc0c3"/>
                    <path id="Path_138" data-name="Path 138" d="M1070.664,509.416l-2.887-1.671v-1.764l2.887,1.671Z" fill="#5cc0c3"/>
                    <path id="Path_139" data-name="Path 139" d="M1073.851,511.255l-1.962-1.133v-1.763l1.962,1.132Z" fill="#5cc0c3"/>
                    <path id="Path_140" data-name="Path 140" d="M1062.9,508.956l-4.369-2.522V504.67l4.369,2.523Z" fill="#5cc0c3"/>
                    <path id="Path_141" data-name="Path 141" d="M1069.482,512.755l-5.354-3.091V507.9l5.354,3.091Z" fill="#5cc0c3"/>
                    <path id="Path_142" data-name="Path 142" d="M1072.668,514.595l-1.961-1.132V511.7l1.961,1.132Z" fill="#5cc0c3"/>
                    <path id="Path_143" data-name="Path 143" d="M1075.7,516.347l-1.961-1.133v-1.763l1.961,1.132Z" fill="#5cc0c3"/>
                    <path id="Path_144" data-name="Path 144" d="M1061.695,512.283l-3.156-1.825v-1.764l3.156,1.825Z" fill="#5cc0c3"/>
                    <path id="Path_145" data-name="Path 145" d="M1064,513.613l-1.08-.625v-1.764l1.08.624Z" fill="#5cc0c3"/>
                    <path id="Path_146" data-name="Path 146" d="M1067.19,515.453l-1.961-1.133v-1.763l1.961,1.132Z" fill="#5cc0c3"/>
                    <path id="Path_147" data-name="Path 147" d="M1070.2,521.216l-11.668-6.736v-1.764l11.668,6.736Z" fill="#5cc0c3"/>
                    <path id="Path_148" data-name="Path 148" d="M1074.313,523.594l-2.887-1.671v-1.764l2.887,1.671Z" fill="#5cc0c3"/>
                    <path id="Path_149" data-name="Path 149" d="M1061.695,520.33l-3.156-1.825v-1.764l3.156,1.825Z" fill="#5cc0c3"/>
                    <path id="Path_150" data-name="Path 150" d="M1069.114,524.61l-6.194-3.58v-1.763l6.194,3.576Z" fill="#5cc0c3"/>
                    <path id="Path_151" data-name="Path 151" d="M1072.3,526.45l-1.962-1.132v-1.764l1.962,1.133Z" fill="#5cc0c3"/>
                    <path id="Path_152" data-name="Path 152" d="M1065,526.258l-6.468-3.734v-1.763l6.468,3.733Z" fill="#5cc0c3"/>
                    <path id="Path_153" data-name="Path 153" d="M1070.9,529.667l-4.677-2.7V525.2l4.677,2.706Z" fill="#5cc0c3"/>
                    <path id="Path_154" data-name="Path 154" d="M1075.29,532.2l-3.161-1.825V528.61l3.161,1.82Z" fill="#5cc0c3"/>
                    <path id="Path_155" data-name="Path 155" d="M1060.718,527.808l-2.184-1.262v-1.764l2.184,1.262Z" fill="#5cc0c3"/>
                    <path id="Path_156" data-name="Path 156" d="M1064.83,530.182l-2.887-1.671v-1.763l2.887,1.671Z" fill="#5cc0c3"/>
                    <path id="Path_157" data-name="Path 157" d="M1070.707,533.575l-4.652-2.686v-1.764l4.652,2.686Z" fill="#5cc0c3"/>
                    <path id="Path_158" data-name="Path 158" d="M1065.226,534.43l-6.692-3.863V528.8l6.692,3.864Z" fill="#5cc0c3"/>
                    <path id="Path_159" data-name="Path 159" d="M1072.72,538.76l-6.27-3.621v-1.764l6.27,3.621Z" fill="#5cc0c3"/>
                    <path id="Path_160" data-name="Path 160" d="M1075.906,540.6l-1.961-1.133V537.7l1.961,1.133Z" fill="#5cc0c3"/>
                    <path id="Path_161" data-name="Path 161" d="M1078.965,542.365,1077,541.233v-1.764l1.961,1.132Z" fill="#5cc0c3"/>
                    <path id="Path_162" data-name="Path 162" d="M1062.543,536.907l-4.01-2.315V532.83l4.01,2.315Z" fill="#5cc0c3"/>
                    <path id="Path_163" data-name="Path 163" d="M1079.311,514.408l5.56,3.21v-1.764l-5.56-3.21Z" fill="#5cc0c3"/>
                    <path id="Path_164" data-name="Path 164" d="M1080.5,519.117l4.369,2.523v-1.764l-4.369-2.523Z" fill="#5cc0c3"/>
                    <path id="Path_165" data-name="Path 165" d="M1081.709,523.837l3.156,1.825V523.9l-3.156-1.825Z" fill="#5cc0c3"/>
                    <path id="Path_166" data-name="Path 166" d="M1080.272,527.03l4.6,2.655v-1.764l-4.6-2.655Z" fill="#5cc0c3"/>
                    <path id="Path_167" data-name="Path 167" d="M1081.709,531.882l3.156,1.825v-1.763l-3.156-1.826Z" fill="#5cc0c3"/>
                    <path id="Path_168" data-name="Path 168" d="M1080.86,535.416l4.01,2.314v-1.764l-4.01-2.314Z" fill="#5cc0c3"/>
                    <path id="Path_169" data-name="Path 169" d="M1082.69,540.491l2.185,1.262v-1.764l-2.185-1.259Z" fill="#5cc0c3"/>
                    <path id="Path_170" data-name="Path 170" d="M1080.636,543.33l4.234,2.443V544.01l-4.234-2.444Z" fill="#5cc0c3"/>
                    <path id="Path_171" data-name="Path 171" d="M1080.86,547.483l4.01,2.315V548.03l-4.01-2.315Z" fill="#5cc0c3"/>
                    <path id="Path_172" data-name="Path 172" d="M1065.473,538.6l-1.7-.984V535.85l1.7.984Z" fill="#5cc0c3"/>
                    <path id="Path_173" data-name="Path 173" d="M1070.536,541.521,1066.7,539.3v-1.764l3.838,2.216Z" fill="#5cc0c3"/>
                    <path id="Path_174" data-name="Path 174" d="M1073.711,555.052l-6.476-3.739v-1.764l6.476,3.739Z" fill="#5cc0c3"/>
                    <path id="Path_175" data-name="Path 175" d="M1078.146,557.613l-2.556-1.473v-1.764l2.552,1.473Z" fill="#5cc0c3"/>
                  </g>
                  <path id="Path_176" data-name="Path 176" d="M1094.552,577.922a1.679,1.679,0,0,1-.836-.24l-44.726-25.824a3.785,3.785,0,0,1-1.628-3.055V484.1a1.764,1.764,0,0,1,.765-1.6,1.464,1.464,0,0,1,1.486.069l44.728,25.824a3.782,3.782,0,0,1,1.627,3.056v64.706a1.768,1.768,0,0,1-.766,1.6A1.276,1.276,0,0,1,1094.552,577.922Zm-.216-1.315c.131.076.217.083.242.069a.725.725,0,0,0,.143-.528V511.442a2.55,2.55,0,0,0-1.006-1.98l-44.725-25.824c-.131-.076-.218-.082-.242-.069a.72.72,0,0,0-.144.528V548.8a2.555,2.555,0,0,0,1.007,1.983Z" fill="#5cc0c3"/>
                </g>
              </g>
            </g>
          </g>
        </g>
        <path id="Path_316" data-name="Path 316" d="M737.207,483.342h45.7V585.606h27.175" fill="none" stroke="#fff" stroke-miterlimit="10" stroke-width="1" stroke-dasharray="4 4"/>
        <path id="Path_317" data-name="Path 317" d="M731.207,512.492h45.7V595.6H815.8" fill="none" stroke="#fff" stroke-miterlimit="10" stroke-width="1" stroke-dasharray="4 4"/>
        <path id="Path_318" data-name="Path 318" d="M725.207,544.082h45.7v61.524h51.168" fill="none" stroke="#fff" stroke-miterlimit="10" stroke-width="1" stroke-dasharray="4 4"/>
        <path id="Path_319" data-name="Path 319" d="M720.207,574.09h45.7V615.6H829.65" fill="none" stroke="#fff" stroke-miterlimit="10" stroke-width="1" stroke-dasharray="4 4"/>
        <g id="Group_59" data-name="Group 59">
          <g id="Group_56" data-name="Group 56">
            <g id="Group_55" data-name="Group 55">
              <g id="Group_54" data-name="Group 54">
                <g id="Group_48" data-name="Group 48">
                  <g id="Group_45" data-name="Group 45">
                    <path id="Path_177" data-name="Path 177" d="M986.09,574.439,966.084,455.718l1.61-.679-2.414-1.385v.014a1.736,1.736,0,0,0-1.862.128L803.49,546.13a4.514,4.514,0,0,0-2.082,4.062l20.17,119.666a1.5,1.5,0,0,0,.843,1.217h0l2.367,1.367.406-2.208-.135.041L984.016,578.5A4.518,4.518,0,0,0,986.09,574.439Z" fill="url(#linear-gradient-11)"/>
                    <path id="Path_178" data-name="Path 178" d="M804.378,549.376l-2.63-1.163a3.623,3.623,0,0,0-.338,1.979l20.17,119.666a1.5,1.5,0,0,0,.843,1.217h0l2.367,1.367.406-2.208-.135.041,8.044-4.642Z" fill="url(#linear-gradient-12)"/>
                    <path id="Path_179" data-name="Path 179" d="M986.528,579.941,826.6,672.275c-1.235.713-2.292.3-2.507-.977L803.922,551.63A4.515,4.515,0,0,1,806,547.568l159.927-92.335c1.235-.713,2.292-.3,2.507.978L988.6,575.876A4.517,4.517,0,0,1,986.528,579.941Z" fill="#121c55"/>
                    <g id="Group_44" data-name="Group 44" opacity="0.51">
                      <path id="Path_180" data-name="Path 180" d="M963.835,462.874l-154.158,89,19.117,112.7,154.054-88.943Z" fill="#263289"/>
                    </g>
                  </g>
                  <g id="Group_47" data-name="Group 47">
                    <path id="Path_181" data-name="Path 181" d="M1087.058,636.595l-8.727,4.558-87.516-50.528a6.354,6.354,0,0,0-5.714.237L834.16,678.008c-1.444-.808-8.029-3.974-8.029-3.974l3.194,8.323.013-.009a1.9,1.9,0,0,0,.893.992L922.4,736.555a6.346,6.346,0,0,0,5.713-.237l154.462-89.179a2.768,2.768,0,0,0,1.3-1.378l.012.008Z" fill="url(#linear-gradient-13)"/>
                    <path id="Path_182" data-name="Path 182" d="M1085.708,638.03l-158.3,91.394a6.505,6.505,0,0,1-5.854.243L827.09,675.13c-1.5-.866-1.313-2.38.42-3.38l158.3-91.4a6.5,6.5,0,0,1,5.854-.242l94.465,54.539C1087.629,635.515,1087.441,637.03,1085.708,638.03Z" fill="url(#linear-gradient-14)"/>
                    <path id="Path_183" data-name="Path 183" d="M1085.709,637.321l-158.3,91.4a6.5,6.5,0,0,1-5.854.243L827.09,674.42a1.9,1.9,0,0,1-.951-1.107,1.616,1.616,0,0,0,.951,1.82l94.465,54.538a6.5,6.5,0,0,0,5.854-.242l158.3-91.4c1.122-.65,1.586-1.511,1.371-2.274A2.672,2.672,0,0,1,1085.709,637.321Z" fill="#fff"/>
                    <path id="Path_184" data-name="Path 184" d="M879.659,709.655v-1.736c0-.164.1-.242.224-.169l6.127,3.535a.531.531,0,0,1,.223.426v1.736c0,.165-.1.241-.223.169l-6.127-3.535A.536.536,0,0,1,879.659,709.655Z" fill="#00368d"/>
                    <path id="Path_185" data-name="Path 185" d="M888.816,714.941v-1.736c0-.163.1-.241.223-.168l6.127,3.534a.537.537,0,0,1,.224.427v1.732c0,.165-.1.241-.224.169l-6.127-3.535A.535.535,0,0,1,888.816,714.941Z" fill="#00368d"/>
                    <path id="Path_186" data-name="Path 186" d="M851.711,670.02,983.26,594.071a2.831,2.831,0,0,1,2.834,0l46.844,27.1a1.011,1.011,0,0,1,0,1.749L901.455,698.838a2.832,2.832,0,0,1-2.832,0L851.716,671.77a1.012,1.012,0,0,1-.005-1.75Z" fill="#9aa1d0"/>
                    <path id="Path_187" data-name="Path 187" d="M851.717,671.77l.47.271,131.078-75.677a2.832,2.832,0,0,1,2.835,0l46.372,26.83.471-.271a1.011,1.011,0,0,0,0-1.749l-46.844-27.1a2.832,2.832,0,0,0-2.835,0L851.716,670.022a1.011,1.011,0,0,0,0,1.748Z" fill="#7985c1"/>
                    <g id="Group_46" data-name="Group 46">
                      <path id="Path_188" data-name="Path 188" d="M989.634,600.936,875.366,666.909l-5.081-2.933L984.553,598Z" fill="#121c55"/>
                      <path id="Path_189" data-name="Path 189" d="M1002.09,608.13,894.911,670.01l-5.081-2.933L997.009,605.2Z" fill="#121c55"/>
                      <path id="Path_190" data-name="Path 190" d="M1010.2,612.812,884.012,685.669l-5.081-2.934,126.192-72.857Z" fill="#121c55"/>
                      <path id="Path_191" data-name="Path 191" d="M1018.316,617.5,892.124,690.353l-5.081-2.933,126.192-72.854Z" fill="#121c55"/>
                      <path id="Path_192" data-name="Path 192" d="M1026.429,622.18,900.237,695.037l-5.08-2.934,126.191-72.856Z" fill="#121c55"/>
                      <path id="Path_193" data-name="Path 193" d="M868.462,670.9l-5.081,2.933L858.3,670.9l5.081-2.934Z" fill="#121c55"/>
                      <path id="Path_194" data-name="Path 194" d="M886.383,674.93l-10.547,6.089-5.08-2.934L881.3,672Z" fill="#121c55"/>
                    </g>
                    <path id="Path_195" data-name="Path 195" d="M988.33,688.4l35.469-20.479c1.386-.8,1.386-2.1,0-2.9l-24.255-14a5.544,5.544,0,0,0-5.02,0L959.058,671.5c-1.387.8-1.387,2.1,0,2.9l24.256,14A5.542,5.542,0,0,0,988.33,688.4Z" fill="url(#linear-gradient-15)"/>
                    <path id="Path_196" data-name="Path 196" d="M959.055,672.683l35.469-20.478a5.542,5.542,0,0,1,5.019,0l24.255,14a2.164,2.164,0,0,1,.872.856c.366-.7.087-1.485-.872-2.042l-24.255-14a5.542,5.542,0,0,0-5.019,0L959.054,671.5c-.959.557-1.238,1.342-.872,2.043A2.169,2.169,0,0,1,959.055,672.683Z" fill="#7985c1"/>
                  </g>
                </g>
                <g id="Group_53" data-name="Group 53" opacity="0.11">
                  <g id="Group_84" data-name="Group 84">
                    <g id="Group_103" data-name="Group 103">
                      <g id="Group_102" data-name="Group 102" clip-path="url(#clip-path-3)">
                        <g id="Group_83" data-name="Group 83">
                          <g id="Group_52" data-name="Group 52">
                            <g id="Group_51" data-name="Group 51">
                              <path id="Path_197" data-name="Path 197" d="M985.967,580.165l-158.3,91.4a6.51,6.51,0,0,1-5.855.242l-94.465-54.539c-1.5-.866-1.313-2.38.421-3.38l158.3-91.4a6.51,6.51,0,0,1,5.855-.242l94.467,54.543C987.89,577.65,987.7,579.164,985.967,580.165Z" fill="url(#linear-gradient-16)"/>
                              <path id="Path_198" data-name="Path 198" d="M827.19,596.551l35.47-20.478c1.387-.8,1.387-2.1,0-2.9l-24.254-14a5.544,5.544,0,0,0-5.02,0l-35.471,20.478c-1.387.8-1.387,2.1,0,2.9l24.255,14A5.544,5.544,0,0,0,827.19,596.551Z" fill="url(#linear-gradient-17)"/>
                              <path id="Path_199" data-name="Path 199" d="M797.918,580.83l35.47-20.478a5.544,5.544,0,0,1,5.02,0l24.255,14a2.17,2.17,0,0,1,.872.856c.365-.7.087-1.485-.872-2.042l-24.254-14a5.544,5.544,0,0,0-5.02,0l-35.471,20.478c-.959.557-1.239,1.342-.871,2.043A2.164,2.164,0,0,1,797.918,580.83Z" fill="#7985c1"/>
                              <g id="Group_50" data-name="Group 50">
                                <path id="Path_200" data-name="Path 200" d="M782.325,628.555l131.549-75.949a2.83,2.83,0,0,1,2.834,0l46.845,27.1a1.01,1.01,0,0,1,0,1.748L832.064,657.371a2.831,2.831,0,0,1-2.832,0L782.325,630.3a1.01,1.01,0,0,1,0-1.749Z" fill="#9aa1d0"/>
                                <path id="Path_201" data-name="Path 201" d="M782.325,630.3l.472.271L913.873,554.9a2.835,2.835,0,0,1,2.834,0L963.08,581.73l.471-.272a1.009,1.009,0,0,0,0-1.748l-46.841-27.1a2.831,2.831,0,0,0-2.834,0L782.327,628.556a1.009,1.009,0,0,0,0,1.748Z" fill="#7985c1"/>
                                <g id="Group_49" data-name="Group 49">
                                  <path id="Path_202" data-name="Path 202" d="M951.29,577.857,836.69,644.03l4.54,2.621,114.6-66.165Z" fill="#121c55"/>
                                  <path id="Path_203" data-name="Path 203" d="M939.218,570.888,830.29,633.777l4.54,2.621L943.758,573.51Z" fill="#121c55"/>
                                  <path id="Path_204" data-name="Path 204" d="M822.159,638.473l-10.174,5.874,4.539,2.62,10.174-5.873Z" fill="#121c55"/>
                                  <path id="Path_205" data-name="Path 205" d="M831.144,647.23l-7.083,4.091,4.54,2.62,7.084-4.09Z" fill="#121c55"/>
                                  <path id="Path_206" data-name="Path 206" d="M931.652,566.52,804.418,639.982l4.539,2.621L936.19,569.145Z" fill="#121c55"/>
                                  <path id="Path_207" data-name="Path 207" d="M924.09,562.152,796.852,635.611l4.54,2.62,127.235-73.459Z" fill="#121c55"/>
                                  <path id="Path_208" data-name="Path 208" d="M916.52,557.784,789.29,631.242l4.54,2.621L921.065,560.4Z" fill="#121c55"/>
                                </g>
                              </g>
                            </g>
                          </g>
                        </g>
                      </g>
                    </g>
                  </g>
                </g>
              </g>
            </g>
          </g>
          <g id="Group_58" data-name="Group 58">
            <g id="Group_57" data-name="Group 57">
              <path id="Path_209" data-name="Path 209" d="M900.911,541.64l8.229-4.76-.294-1.811-8.229,4.761Z" fill="#5cc0c3"/>
              <path id="Path_210" data-name="Path 210" d="M896.69,544.082l2.963-1.714-.3-1.81-2.962,1.714Z" fill="#5cc0c3"/>
              <path id="Path_211" data-name="Path 211" d="M893.42,545.974l2.014-1.165L895.14,543l-2.013,1.166Z" fill="#5cc0c3"/>
              <path id="Path_212" data-name="Path 212" d="M905.328,543.61l4.484-2.594-.3-1.81-4.484,2.594Z" fill="#5cc0c3"/>
              <path id="Path_213" data-name="Path 213" d="M898.571,547.516l5.495-3.179-.294-1.81-5.495,3.179Z" fill="#5cc0c3"/>
              <path id="Path_214" data-name="Path 214" d="M895.306,549.408l2.014-1.165-.3-1.811-2.013,1.165Z" fill="#5cc0c3"/>
              <path id="Path_215" data-name="Path 215" d="M892.19,551.209l2.014-1.165-.294-1.811L891.9,549.4Z" fill="#5cc0c3"/>
              <path id="Path_216" data-name="Path 216" d="M907.238,547.03l3.244-1.877-.294-1.81-3.244,1.876Z" fill="#5cc0c3"/>
              <path id="Path_217" data-name="Path 217" d="M904.873,548.4l1.108-.642-.294-1.81-1.109.641Z" fill="#5cc0c3"/>
              <path id="Path_218" data-name="Path 218" d="M901.6,550.291l2.014-1.165-.3-1.811-2.013,1.165Z" fill="#5cc0c3"/>
              <path id="Path_219" data-name="Path 219" d="M899.181,556.216l11.976-6.927-.294-1.81-11.973,6.926Z" fill="#5cc0c3"/>
              <path id="Path_220" data-name="Path 220" d="M894.962,558.657l2.962-1.714-.294-1.81-2.963,1.714Z" fill="#5cc0c3"/>
              <path id="Path_221" data-name="Path 221" d="M908.582,555.3l3.244-1.877-.294-1.81-3.244,1.876Z" fill="#5cc0c3"/>
              <path id="Path_222" data-name="Path 222" d="M900.969,559.706l6.356-3.677-.294-1.811-6.356,3.677Z" fill="#5cc0c3"/>
              <path id="Path_223" data-name="Path 223" d="M897.7,561.6l2.014-1.165-.294-1.811-2.014,1.165Z" fill="#5cc0c3"/>
              <path id="Path_224" data-name="Path 224" d="M905.86,561.4l6.637-3.839-.294-1.811-6.638,3.84Z" fill="#5cc0c3"/>
              <path id="Path_225" data-name="Path 225" d="M899.8,564.906l4.8-2.777-.3-1.81-4.8,2.777Z" fill="#5cc0c3"/>
              <path id="Path_226" data-name="Path 226" d="M895.3,567.509l3.244-1.876-.294-1.811-3.244,1.877Z" fill="#5cc0c3"/>
              <path id="Path_227" data-name="Path 227" d="M910.928,562.994l2.241-1.3-.294-1.811-2.242,1.3Z" fill="#5cc0c3"/>
              <path id="Path_228" data-name="Path 228" d="M906.708,565.436l2.962-1.714-.294-1.811-2.962,1.714Z" fill="#5cc0c3"/>
              <path id="Path_229" data-name="Path 229" d="M900.677,568.93l4.775-2.766-.294-1.81-4.774,2.762Z" fill="#5cc0c3"/>
              <path id="Path_230" data-name="Path 230" d="M906.974,569.807l6.869-3.973-.294-1.81L906.679,568Z" fill="#5cc0c3"/>
              <path id="Path_231" data-name="Path 231" d="M899.282,574.256l6.435-3.722-.295-1.811-6.434,3.722Z" fill="#5cc0c3"/>
              <path id="Path_232" data-name="Path 232" d="M896.012,576.148l2.012-1.165-.294-1.811-2.013,1.165Z" fill="#5cc0c3"/>
              <path id="Path_233" data-name="Path 233" d="M892.873,577.963l2.013-1.165-.294-1.81-2.014,1.165Z" fill="#5cc0c3"/>
              <path id="Path_234" data-name="Path 234" d="M910.4,572.346l4.115-2.381-.294-1.81-4.115,2.38Z" fill="#5cc0c3"/>
              <path id="Path_235" data-name="Path 235" d="M887.818,549.215l-5.706,3.3-.294-1.811,5.706-3.3Z" fill="#5cc0c3"/>
              <path id="Path_236" data-name="Path 236" d="M887.268,554.058l-4.484,2.594-.294-1.81,4.484-2.594Z" fill="#5cc0c3"/>
              <path id="Path_237" data-name="Path 237" d="M886.7,558.911l-3.244,1.877-.294-1.811,3.244-1.876Z" fill="#5cc0c3"/>
              <path id="Path_238" data-name="Path 238" d="M888.846,562.2l-4.718,2.729-.295-1.81,4.719-2.73Z" fill="#5cc0c3"/>
              <path id="Path_239" data-name="Path 239" d="M888.042,567.184,884.8,569.06l-.294-1.81,3.243-1.877Z" fill="#5cc0c3"/>
              <path id="Path_240" data-name="Path 240" d="M889.585,570.817l-4.114,2.38-.294-1.81,4.114-2.381Z" fill="#5cc0c3"/>
              <path id="Path_241" data-name="Path 241" d="M888.383,576.036l-2.242,1.3-.294-1.811,2.242-1.3Z" fill="#5cc0c3"/>
              <path id="Path_242" data-name="Path 242" d="M891.158,578.957l-4.345,2.516-.294-1.81,4.344-2.513Z" fill="#5cc0c3"/>
              <path id="Path_243" data-name="Path 243" d="M891.6,583.225l-4.115,2.381-.294-1.811,4.115-2.38Z" fill="#5cc0c3"/>
              <path id="Path_244" data-name="Path 244" d="M907.39,574.09l1.75-1.012-.294-1.811-1.75,1.012Z" fill="#5cc0c3"/>
              <path id="Path_245" data-name="Path 245" d="M902.2,577.1l3.938-2.278-.294-1.81-3.938,2.278Z" fill="#5cc0c3"/>
              <path id="Path_246" data-name="Path 246" d="M900.89,591.01l6.646-3.846-.294-1.811L900.6,589.2Z" fill="#5cc0c3"/>
              <path id="Path_247" data-name="Path 247" d="M896.338,593.642l2.618-1.514-.294-1.811-2.618,1.514Z" fill="#5cc0c3"/>
            </g>
            <path id="Path_248" data-name="Path 248" d="M879,614.165a1.632,1.632,0,0,1-.691-.154,1.964,1.964,0,0,1-1.035-1.507L866.3,546.041a3.368,3.368,0,0,1,1.485-3.3L918,513.751a1.783,1.783,0,0,1,1.667-.121,1.956,1.956,0,0,1,1.034,1.508L931.672,581.6a3.371,3.371,0,0,1-1.486,3.3l-50.213,28.99A1.955,1.955,0,0,1,879,614.165ZM918.97,514.72a.7.7,0,0,0-.348.109l-50.213,28.99a2.149,2.149,0,0,0-.88,2.019L878.5,612.3a.752.752,0,0,0,.34.586.572.572,0,0,0,.513-.073l50.213-28.991a2.146,2.146,0,0,0,.878-2.019l-10.97-66.464a.76.76,0,0,0-.339-.588.379.379,0,0,0-.166-.032Z" fill="#5cc0c3"/>
          </g>
        </g>
        <g id="_Authentication_" data-name=" Authentication ">
          <g id="_Authentication_2" data-name=" Authentication 2" style="isolation: isolate">
            <g id="Group_104" data-name="Group 104" style="isolation: isolate">
              <path id="Path_510" data-name="Path 510" d="M652.416,485.583a2.377,2.377,0,0,1-1.934-2.422v-1.145q0-1.209-1.036-1.209v-.955q1.037,0,1.036-1.215V477.5a2.464,2.464,0,0,1,.5-1.563,2.756,2.756,0,0,1,1.431-.865l.258.752q-.93.3-.962,1.644v1.16a1.756,1.756,0,0,1-.929,1.7,1.774,1.774,0,0,1,.929,1.713v1.144q.033,1.342.962,1.643Z" fill="#fff"/>
              <path id="Path_511" data-name="Path 511" d="M658.007,481.829h-3.029l-.634,1.82h-1.412l2.954-7.82H657.1l2.959,7.82h-1.418Zm-2.648-1.1h2.267l-1.133-3.244Z" fill="#fff"/>
              <path id="Path_512" data-name="Path 512" d="M664.286,483.08a2.024,2.024,0,0,1-1.633.676,1.806,1.806,0,0,1-1.431-.552,2.359,2.359,0,0,1-.486-1.6v-3.765h1.3v3.749q0,1.107.918,1.107a1.29,1.29,0,0,0,1.284-.683v-4.173h1.3v5.812h-1.23Z" fill="#fff"/>
              <path id="Path_513" data-name="Path 513" d="M668.513,476.424v1.413h1.026v.967h-1.026v3.244a.715.715,0,0,0,.132.481.61.61,0,0,0,.47.147,2.051,2.051,0,0,0,.456-.052v1.009a3.222,3.222,0,0,1-.859.123q-1.5,0-1.5-1.66V478.8h-.956v-.967h.956v-1.413Z" fill="#fff"/>
              <path id="Path_514" data-name="Path 514" d="M671.822,478.471a2.042,2.042,0,0,1,1.616-.741q1.859,0,1.886,2.122v3.8h-1.3V479.9a1.149,1.149,0,0,0-.261-.852,1.067,1.067,0,0,0-.765-.249,1.258,1.258,0,0,0-1.171.7v4.152h-1.3V475.4h1.3Z" fill="#fff"/>
              <path id="Path_515" data-name="Path 515" d="M679.2,483.756a2.7,2.7,0,0,1-2.012-.781,2.835,2.835,0,0,1-.771-2.082v-.16a3.491,3.491,0,0,1,.336-1.556,2.554,2.554,0,0,1,.943-1.065,2.487,2.487,0,0,1,1.353-.382,2.285,2.285,0,0,1,1.835.757,3.208,3.208,0,0,1,.647,2.143v.527h-3.8a1.749,1.749,0,0,0,.481,1.138,1.441,1.441,0,0,0,1.061.419,1.766,1.766,0,0,0,1.461-.725l.7.672a2.349,2.349,0,0,1-.931.808A2.915,2.915,0,0,1,679.2,483.756Zm-.156-4.978a1.1,1.1,0,0,0-.867.375,1.945,1.945,0,0,0-.422,1.048h2.487v-.1a1.587,1.587,0,0,0-.349-.991A1.091,1.091,0,0,0,679.046,478.778Z" fill="#fff"/>
              <path id="Path_516" data-name="Path 516" d="M683.756,477.837l.038.671a2.093,2.093,0,0,1,1.692-.778q1.815,0,1.847,2.079v3.84h-1.3v-3.766a1.2,1.2,0,0,0-.238-.818,1,1,0,0,0-.782-.266,1.256,1.256,0,0,0-1.176.714v4.136h-1.306v-5.812Z" fill="#fff"/>
              <path id="Path_517" data-name="Path 517" d="M690.3,476.424v1.413h1.026v.967H690.3v3.244a.715.715,0,0,0,.132.481.612.612,0,0,0,.47.147,2.045,2.045,0,0,0,.456-.052v1.009a3.222,3.222,0,0,1-.859.123q-1.5,0-1.5-1.66V478.8h-.956v-.967h.956v-1.413Z" fill="#fff"/>
              <path id="Path_518" data-name="Path 518" d="M692.323,476.329a.692.692,0,0,1,.191-.5.719.719,0,0,1,.545-.2.729.729,0,0,1,.548.2.685.685,0,0,1,.193.5.672.672,0,0,1-.193.491.735.735,0,0,1-.548.2.725.725,0,0,1-.545-.2A.678.678,0,0,1,692.323,476.329Zm1.386,7.32h-1.3v-5.812h1.3Z" fill="#fff"/>
              <path id="Path_519" data-name="Path 519" d="M697.517,482.714a1.178,1.178,0,0,0,.811-.284.973.973,0,0,0,.344-.7h1.23a1.914,1.914,0,0,1-.339,1.013,2.228,2.228,0,0,1-.859.744,2.569,2.569,0,0,1-1.171.273,2.477,2.477,0,0,1-1.933-.789,3.136,3.136,0,0,1-.715-2.181v-.134a3.08,3.08,0,0,1,.709-2.124,2.455,2.455,0,0,1,1.934-.8,2.386,2.386,0,0,1,1.689.6,2.167,2.167,0,0,1,.685,1.587h-1.23a1.192,1.192,0,0,0-.341-.821,1.1,1.1,0,0,0-.814-.322,1.146,1.146,0,0,0-.977.459,2.342,2.342,0,0,0-.35,1.393v.21a2.386,2.386,0,0,0,.341,1.41A1.15,1.15,0,0,0,697.517,482.714Z" fill="#fff"/>
              <path id="Path_520" data-name="Path 520" d="M704.36,483.649a.847.847,0,1,0-1.676.107,2.048,2.048,0,0,1-1.429-.5,1.6,1.6,0,0,1-.553-1.234,1.65,1.65,0,0,1,.691-1.427,3.343,3.343,0,0,1,1.973-.5h.8v-.381a1.014,1.014,0,0,0-.253-.722,1,1,0,0,0-.768-.272,1.145,1.145,0,0,0-.73.224.688.688,0,0,0-.285.566h-1.3a1.444,1.444,0,0,1,.317-.894,2.106,2.106,0,0,1,.862-.653,3.031,3.031,0,0,1,1.216-.236,2.441,2.441,0,0,1,1.628.513,1.831,1.831,0,0,1,.623,1.442v2.621a2.96,2.96,0,0,0,.22,1.251v.092Zm-1.434-.94a1.484,1.484,0,0,0,.727-.188,1.257,1.257,0,0,0,.514-.505v-1.1h-.7a1.923,1.923,0,0,0-1.09.252.82.82,0,0,0-.366.715.765.765,0,0,0,.25.6A.97.97,0,0,0,702.926,482.709Z" fill="#fff"/>
              <path id="Path_521" data-name="Path 521" d="M708.474,476.424v1.413H709.5v.967h-1.026v3.244a.721.721,0,0,0,.131.481.614.614,0,0,0,.471.147,2.051,2.051,0,0,0,.456-.052v1.009a3.222,3.222,0,0,1-.859.123q-1.5,0-1.5-1.66V478.8h-.956v-.967h.956v-1.413Z" fill="#fff"/>
              <path id="Path_522" data-name="Path 522" d="M710.5,476.329a.687.687,0,0,1,.191-.5.719.719,0,0,1,.545-.2.729.729,0,0,1,.548.2.685.685,0,0,1,.193.5.672.672,0,0,1-.193.491.735.735,0,0,1-.548.2.725.725,0,0,1-.545-.2A.674.674,0,0,1,710.5,476.329Zm1.386,7.32h-1.3v-5.812h1.3Z" fill="#fff"/>
              <path id="Path_523" data-name="Path 523" d="M713.061,480.69a3.432,3.432,0,0,1,.338-1.539,2.473,2.473,0,0,1,.951-1.053,2.683,2.683,0,0,1,1.407-.368,2.542,2.542,0,0,1,1.91.757,2.989,2.989,0,0,1,.792,2.01l.005.3a3.459,3.459,0,0,1-.33,1.536,2.424,2.424,0,0,1-.946,1.047,2.686,2.686,0,0,1-1.42.371,2.52,2.52,0,0,1-1.968-.819,3.133,3.133,0,0,1-.739-2.183Zm1.305.112a2.343,2.343,0,0,0,.371,1.4,1.294,1.294,0,0,0,2.06-.008,2.589,2.589,0,0,0,.368-1.509,2.315,2.315,0,0,0-.379-1.4,1.212,1.212,0,0,0-1.029-.515,1.2,1.2,0,0,0-1.015.507A2.543,2.543,0,0,0,714.366,480.8Z" fill="#fff"/>
              <path id="Path_524" data-name="Path 524" d="M720.779,477.837l.038.671a2.093,2.093,0,0,1,1.692-.778q1.815,0,1.847,2.079v3.84h-1.3v-3.766a1.191,1.191,0,0,0-.239-.818,1,1,0,0,0-.781-.266,1.258,1.258,0,0,0-1.177.714v4.136h-1.3v-5.812Z" fill="#fff"/>
              <path id="Path_525" data-name="Path 525" d="M725.162,484.825q.945-.3.967-1.676v-1.117a1.986,1.986,0,0,0,0-3.421V477.5q-.021-1.369-.967-1.676l.258-.752a2.69,2.69,0,0,1,1.455.889,2.55,2.55,0,0,1,.479,1.609v1.074q0,1.209,1.042,1.209v.955q-1.043,0-1.042,1.209v1.059a2.559,2.559,0,0,1-.481,1.619,2.711,2.711,0,0,1-1.453.889Z" fill="#fff"/>
            </g>
          </g>
        </g>
        <g id="Group_85" data-name="Group 85">
          <rect id="Rectangle_26-2" data-name="Rectangle 26-2" width="66" height="25" rx="4" transform="translate(671.207 499.992)" fill="#4faa34"/>
          <g id="_APIKEY_" data-name=" APIKEY ">
            <g id="_APIKEY_2" data-name=" APIKEY 2" style="isolation: isolate">
              <g id="Group_105" data-name="Group 105" style="isolation: isolate">
                <path id="Path_526" data-name="Path 526" d="M683.408,518.1a2.591,2.591,0,0,1-2.109-2.643v-1.248q0-1.319-1.131-1.318V511.85q1.131,0,1.131-1.325v-1.242a2.687,2.687,0,0,1,.548-1.7,3,3,0,0,1,1.561-.943l.281.82q-1.013.329-1.048,1.793v1.266a1.913,1.913,0,0,1-1.014,1.851,1.938,1.938,0,0,1,1.014,1.869v1.248q.035,1.465,1.048,1.793Z" fill="#fff"/>
                <path id="Path_527" data-name="Path 527" d="M689.508,514.006h-3.3l-.691,1.986h-1.541l3.222-8.531h1.33l3.229,8.531h-1.547Zm-2.889-1.2h2.473l-1.237-3.54Z" fill="#fff"/>
                <path id="Path_528" data-name="Path 528" d="M694.2,512.828v3.164h-1.482v-8.531h3.263a3.3,3.3,0,0,1,2.271.745,2.505,2.505,0,0,1,.841,1.971,2.423,2.423,0,0,1-.823,1.953,3.458,3.458,0,0,1-2.306.7Zm0-1.2h1.781a1.753,1.753,0,0,0,1.207-.372,1.366,1.366,0,0,0,.416-1.075,1.476,1.476,0,0,0-.421-1.105,1.631,1.631,0,0,0-1.161-.425H694.2Z" fill="#fff"/>
                <path id="Path_529" data-name="Path 529" d="M701.953,515.992h-1.476v-8.531h1.476Z" fill="#fff"/>
                <path id="Path_530" data-name="Path 530" d="M706.225,512.307l-.967,1.025v2.66h-1.483v-8.531h1.483v4l.82-1.014,2.5-2.988h1.793l-3.17,3.779,3.352,4.752h-1.758Z" fill="#fff"/>
                <path id="Path_531" data-name="Path 531" d="M716.326,512.184h-3.5v2.625h4.1v1.183H711.34v-8.531h5.537v1.2h-4.055v2.356h3.5Z" fill="#fff"/>
                <path id="Path_532" data-name="Path 532" d="M720.908,511.5l1.963-4.043h1.641l-2.86,5.391v3.14h-1.488v-3.14l-2.865-5.391h1.646Z" fill="#fff"/>
                <path id="Path_533" data-name="Path 533" d="M724.84,517.275q1.03-.333,1.055-1.828v-1.218a2.167,2.167,0,0,0,0-3.733v-1.213q-.024-1.494-1.055-1.828l.281-.82a2.939,2.939,0,0,1,1.588.969,2.78,2.78,0,0,1,.521,1.755v1.172q0,1.318,1.137,1.319v1.043q-1.137,0-1.137,1.318v1.154a2.785,2.785,0,0,1-.524,1.767,2.96,2.96,0,0,1-1.585.97Z" fill="#fff"/>
              </g>
            </g>
          </g>
        </g>
        <g id="Group_86" data-name="Group 86">
          <path id="Path_249-2" data-name="Path 249-2" d="M640.449,531.336h92.309c2.457,0,4.449,1.3,4.449,2.9v18.842c0,1.6-1.991,2.9-4.449,2.9H640.449c-2.456,0-4.449-1.3-4.449-2.9V534.236C636,532.636,637.99,531.336,640.449,531.336Z" fill="#48b59c"/>
          <g id="_Custom_Design_" data-name=" Custom Design ">
            <g id="_Custom_Design_2" data-name=" Custom Design 2" style="isolation: isolate">
              <g id="Group_106" data-name="Group 106" style="isolation: isolate">
                <path id="Path_534" data-name="Path 534" d="M649.628,548.467a2.376,2.376,0,0,1-1.934-2.422V544.9q0-1.208-1.036-1.209v-.955q1.036,0,1.036-1.215v-1.138a2.466,2.466,0,0,1,.5-1.563,2.762,2.762,0,0,1,1.431-.865l.258.752q-.93.3-.962,1.645v1.16a1.755,1.755,0,0,1-.929,1.7,1.774,1.774,0,0,1,.929,1.713v1.144q.033,1.343.962,1.643Z" fill="#fff"/>
                <path id="Path_535" data-name="Path 535" d="M656.809,543.987a2.823,2.823,0,0,1-.924,1.952,3.146,3.146,0,0,1-2.143.7,3.043,3.043,0,0,1-1.646-.444,2.9,2.9,0,0,1-1.1-1.259,4.529,4.529,0,0,1-.4-1.9v-.73a4.592,4.592,0,0,1,.392-1.951,2.945,2.945,0,0,1,1.125-1.3,3.136,3.136,0,0,1,1.7-.458,3.022,3.022,0,0,1,2.084.7,2.928,2.928,0,0,1,.918,1.984h-1.353a1.933,1.933,0,0,0-.492-1.217,1.623,1.623,0,0,0-1.157-.373,1.587,1.587,0,0,0-1.362.648,3.235,3.235,0,0,0-.486,1.9v.694a3.428,3.428,0,0,0,.454,1.935,1.5,1.5,0,0,0,1.329.667,1.759,1.759,0,0,0,1.2-.359,1.882,1.882,0,0,0,.511-1.2Z" fill="#fff"/>
                <path id="Path_536" data-name="Path 536" d="M661.417,545.964a2.024,2.024,0,0,1-1.632.677,1.807,1.807,0,0,1-1.432-.553,2.355,2.355,0,0,1-.486-1.6v-3.764h1.3v3.749q0,1.105.919,1.106a1.291,1.291,0,0,0,1.284-.682v-4.173h1.3v5.811h-1.23Z" fill="#fff"/>
                <path id="Path_537" data-name="Path 537" d="M667.267,544.954a.593.593,0,0,0-.288-.532,3.067,3.067,0,0,0-.953-.322,4.9,4.9,0,0,1-1.112-.354,1.483,1.483,0,0,1-.977-1.37,1.549,1.549,0,0,1,.633-1.257,2.505,2.505,0,0,1,1.612-.505,2.61,2.61,0,0,1,1.684.516,1.639,1.639,0,0,1,.641,1.337h-1.3a.8.8,0,0,0-.279-.625,1.067,1.067,0,0,0-.741-.25,1.153,1.153,0,0,0-.7.2.626.626,0,0,0-.272.531.527.527,0,0,0,.253.467,3.437,3.437,0,0,0,1.02.336,4.818,4.818,0,0,1,1.206.4,1.7,1.7,0,0,1,.65.562,1.431,1.431,0,0,1,.212.795,1.514,1.514,0,0,1-.65,1.269,2.765,2.765,0,0,1-1.7.487,3,3,0,0,1-1.273-.258,2.086,2.086,0,0,1-.87-.709,1.678,1.678,0,0,1-.312-.973h1.268a.918.918,0,0,0,.349.712,1.353,1.353,0,0,0,.854.25,1.316,1.316,0,0,0,.784-.2A.608.608,0,0,0,667.267,544.954Z" fill="#fff"/>
                <path id="Path_538" data-name="Path 538" d="M671.322,539.309v1.413h1.026v.966h-1.026v3.245a.719.719,0,0,0,.131.48.609.609,0,0,0,.47.148,2.054,2.054,0,0,0,.457-.053v1.01a3.229,3.229,0,0,1-.859.123q-1.5,0-1.5-1.661v-3.292h-.956v-.966h.956v-1.413Z" fill="#fff"/>
                <path id="Path_539" data-name="Path 539" d="M672.938,543.574a3.42,3.42,0,0,1,.339-1.539,2.466,2.466,0,0,1,.951-1.053,2.68,2.68,0,0,1,1.407-.368,2.541,2.541,0,0,1,1.909.757,2.98,2.98,0,0,1,.792,2.01l.006.306a3.449,3.449,0,0,1-.331,1.536,2.433,2.433,0,0,1-.945,1.047,2.688,2.688,0,0,1-1.42.371,2.522,2.522,0,0,1-1.969-.82,3.136,3.136,0,0,1-.739-2.182Zm1.306.113a2.342,2.342,0,0,0,.37,1.4,1.2,1.2,0,0,0,1.032.508,1.191,1.191,0,0,0,1.028-.516,2.589,2.589,0,0,0,.368-1.509,2.31,2.31,0,0,0-.378-1.4,1.211,1.211,0,0,0-1.029-.516,1.2,1.2,0,0,0-1.015.507A2.539,2.539,0,0,0,674.244,543.687Z" fill="#fff"/>
                <path id="Path_540" data-name="Path 540" d="M680.673,540.722l.037.606a2.1,2.1,0,0,1,1.676-.714,1.605,1.605,0,0,1,1.6.892,2.062,2.062,0,0,1,1.784-.892,1.809,1.809,0,0,1,1.431.532,2.347,2.347,0,0,1,.481,1.569v3.818h-1.3v-3.781a1.156,1.156,0,0,0-.242-.811,1.061,1.061,0,0,0-.8-.257,1.087,1.087,0,0,0-.728.238,1.258,1.258,0,0,0-.4.626l.005,3.985h-1.3v-3.824a.93.93,0,0,0-1.047-1.025,1.148,1.148,0,0,0-1.112.638v4.211h-1.3v-5.811Z" fill="#fff"/>
                <path id="Path_541" data-name="Path 541" d="M691.882,546.533v-7.82h2.31a3.626,3.626,0,0,1,1.84.462,3.15,3.15,0,0,1,1.243,1.31,4.17,4.17,0,0,1,.44,1.945v.392a4.135,4.135,0,0,1-.443,1.955,3.106,3.106,0,0,1-1.262,1.3,3.784,3.784,0,0,1-1.877.457Zm1.359-6.724v5.639h.886a2.036,2.036,0,0,0,1.641-.669,2.907,2.907,0,0,0,.583-1.92v-.435a2.989,2.989,0,0,0-.553-1.944,1.96,1.96,0,0,0-1.606-.671Z" fill="#fff"/>
                <path id="Path_542" data-name="Path 542" d="M701.5,546.641a2.7,2.7,0,0,1-2.011-.782,2.834,2.834,0,0,1-.771-2.082v-.16a3.5,3.5,0,0,1,.335-1.555A2.55,2.55,0,0,1,700,541a2.488,2.488,0,0,1,1.354-.382,2.284,2.284,0,0,1,1.834.757,3.209,3.209,0,0,1,.647,2.144v.526h-3.8a1.745,1.745,0,0,0,.48,1.139,1.445,1.445,0,0,0,1.061.419,1.767,1.767,0,0,0,1.461-.726l.7.672a2.355,2.355,0,0,1-.932.809A2.928,2.928,0,0,1,701.5,546.641Zm-.156-4.979a1.1,1.1,0,0,0-.867.375,1.949,1.949,0,0,0-.422,1.048h2.487v-.1A1.592,1.592,0,0,0,702.2,542,1.09,1.09,0,0,0,701.346,541.662Z" fill="#fff"/>
                <path id="Path_543" data-name="Path 543" d="M708.1,544.954a.593.593,0,0,0-.288-.532,3.066,3.066,0,0,0-.953-.322,4.922,4.922,0,0,1-1.112-.354,1.485,1.485,0,0,1-.977-1.37,1.547,1.547,0,0,1,.634-1.257,2.5,2.5,0,0,1,1.611-.505,2.606,2.606,0,0,1,1.684.516,1.637,1.637,0,0,1,.642,1.337h-1.3a.8.8,0,0,0-.28-.625,1.067,1.067,0,0,0-.741-.25,1.153,1.153,0,0,0-.7.2.625.625,0,0,0-.271.531.528.528,0,0,0,.252.467,3.458,3.458,0,0,0,1.021.336,4.809,4.809,0,0,1,1.205.4,1.712,1.712,0,0,1,.651.562,1.431,1.431,0,0,1,.212.795,1.514,1.514,0,0,1-.65,1.269,2.765,2.765,0,0,1-1.7.487,3.006,3.006,0,0,1-1.273-.258,2.1,2.1,0,0,1-.87-.709,1.684,1.684,0,0,1-.311-.973h1.267a.918.918,0,0,0,.349.712,1.355,1.355,0,0,0,.854.25,1.316,1.316,0,0,0,.784-.2A.606.606,0,0,0,708.1,544.954Z" fill="#fff"/>
                <path id="Path_544" data-name="Path 544" d="M710.525,539.213a.7.7,0,0,1,.191-.5.718.718,0,0,1,.545-.2.727.727,0,0,1,.548.2.688.688,0,0,1,.193.5.672.672,0,0,1-.193.491.733.733,0,0,1-.548.2.724.724,0,0,1-.545-.2A.678.678,0,0,1,710.525,539.213Zm1.386,7.32h-1.3v-5.811h1.3Z" fill="#fff"/>
                <path id="Path_545" data-name="Path 545" d="M713.1,543.584a3.393,3.393,0,0,1,.636-2.161,2.043,2.043,0,0,1,1.689-.809,1.915,1.915,0,0,1,1.563.693l.059-.585h1.177v5.633a2.34,2.34,0,0,1-.712,1.8,2.7,2.7,0,0,1-1.92.661,3.112,3.112,0,0,1-1.249-.265,2.227,2.227,0,0,1-.927-.7l.618-.783a1.866,1.866,0,0,0,1.483.714,1.437,1.437,0,0,0,1.025-.352,1.346,1.346,0,0,0,.376-1.034v-.392a1.918,1.918,0,0,1-1.5.629,2.038,2.038,0,0,1-1.667-.811A3.507,3.507,0,0,1,713.1,543.584Zm1.3.113a2.334,2.334,0,0,0,.358,1.378,1.147,1.147,0,0,0,.99.5,1.254,1.254,0,0,0,1.171-.677v-2.556a1.236,1.236,0,0,0-1.16-.66,1.154,1.154,0,0,0-1,.509A2.613,2.613,0,0,0,714.4,543.7Z" fill="#fff"/>
                <path id="Path_546" data-name="Path 546" d="M720.779,540.722l.037.671a2.091,2.091,0,0,1,1.692-.779q1.816,0,1.848,2.079v3.84h-1.3v-3.765a1.2,1.2,0,0,0-.239-.819,1,1,0,0,0-.782-.265,1.257,1.257,0,0,0-1.176.713v4.136h-1.3v-5.811Z" fill="#fff"/>
                <path id="Path_547" data-name="Path 547" d="M725.162,547.709q.945-.3.966-1.676v-1.117a1.985,1.985,0,0,0,0-3.421v-1.112q-.021-1.368-.966-1.676l.257-.752a2.7,2.7,0,0,1,1.456.89,2.545,2.545,0,0,1,.478,1.608v1.074q0,1.209,1.042,1.209v.955q-1.043,0-1.042,1.209v1.059a2.553,2.553,0,0,1-.481,1.619,2.707,2.707,0,0,1-1.453.889Z" fill="#fff"/>
              </g>
            </g>
          </g>
        </g>
        <g id="Group_87" data-name="Group 87">
          <path id="Path_249" data-name="Path 249" d="M679.809,562.322h54.758a2.78,2.78,0,0,1,2.64,2.9v18.842a2.779,2.779,0,0,1-2.64,2.9H679.809a2.779,2.779,0,0,1-2.64-2.9V565.222A2.78,2.78,0,0,1,679.809,562.322Z" fill="#002a80"/>
          <g id="_CODE_" data-name=" CODE ">
            <g id="_CODE_2" data-name=" CODE 2" style="isolation: isolate">
              <g id="Group_107" data-name="Group 107" style="isolation: isolate">
                <path id="Path_548" data-name="Path 548" d="M690.873,573.934l3.169,1.2v1.3l-4.5-2V573.4l4.5-2v1.306Z" fill="#fff"/>
                <path id="Path_549" data-name="Path 549" d="M701.562,574.776a2.827,2.827,0,0,1-.924,1.953,3.152,3.152,0,0,1-2.143.7,3.049,3.049,0,0,1-1.647-.444,2.91,2.91,0,0,1-1.1-1.259,4.544,4.544,0,0,1-.4-1.9v-.73a4.592,4.592,0,0,1,.392-1.951,2.941,2.941,0,0,1,1.126-1.3,3.13,3.13,0,0,1,1.694-.457,3.019,3.019,0,0,1,2.084.7,2.931,2.931,0,0,1,.919,1.984h-1.354a1.928,1.928,0,0,0-.492-1.217,1.621,1.621,0,0,0-1.157-.373,1.584,1.584,0,0,0-1.361.648,3.234,3.234,0,0,0-.487,1.9v.694a3.428,3.428,0,0,0,.455,1.935,1.5,1.5,0,0,0,1.329.667,1.763,1.763,0,0,0,1.2-.359,1.887,1.887,0,0,0,.51-1.2Z" fill="#fff"/>
                <path id="Path_550" data-name="Path 550" d="M709.017,573.616a4.8,4.8,0,0,1-.4,2.017,3,3,0,0,1-1.136,1.332,3.329,3.329,0,0,1-3.394,0,3.051,3.051,0,0,1-1.15-1.324,4.66,4.66,0,0,1-.411-1.982v-.44a4.764,4.764,0,0,1,.406-2.02,3.041,3.041,0,0,1,1.144-1.34,3.342,3.342,0,0,1,3.389-.005,3.009,3.009,0,0,1,1.141,1.321,4.747,4.747,0,0,1,.409,2.007Zm-1.359-.408a3.42,3.42,0,0,0-.492-1.993,1.733,1.733,0,0,0-2.771,0,3.35,3.35,0,0,0-.508,1.952v.451a3.39,3.39,0,0,0,.5,1.993,1.738,1.738,0,0,0,2.782.016,3.466,3.466,0,0,0,.486-2.009Z" fill="#fff"/>
                <path id="Path_551" data-name="Path 551" d="M710.37,577.322V569.5h2.31a3.626,3.626,0,0,1,1.84.462,3.151,3.151,0,0,1,1.243,1.31,4.169,4.169,0,0,1,.44,1.945v.392a4.135,4.135,0,0,1-.443,1.955,3.1,3.1,0,0,1-1.262,1.3,3.784,3.784,0,0,1-1.877.457Zm1.359-6.724v5.639h.886a2.036,2.036,0,0,0,1.641-.669,2.907,2.907,0,0,0,.583-1.92v-.435a2.99,2.99,0,0,0-.553-1.943,1.959,1.959,0,0,0-1.606-.672Z" fill="#fff"/>
                <path id="Path_552" data-name="Path 552" d="M722.127,573.831h-3.211v2.406h3.754v1.085h-5.113V569.5h5.075v1.1h-3.716v2.159h3.211Z" fill="#fff"/>
                <path id="Path_553" data-name="Path 553" d="M726.988,573.906l-3.319-1.218V571.4l4.641,2v1.037l-4.641,2v-1.284Z" fill="#fff"/>
              </g>
            </g>
          </g>
        </g>
      </g>
    </g>
  </g>
</svg>
