<svg xmlns="http://www.w3.org/2000/svg" viewBox="0 0 474.79 140"><defs><style>.cls-1,.cls-4{fill:#fff;}.cls-2{fill:#f48e5b;}.cls-3{fill:#4184f3;}.cls-3,.cls-4,.cls-5{fill-rule:evenodd;}.cls-4{stroke:#fff;stroke-miterlimit:10;stroke-width:0.5px;}.cls-5{fill:#73d882;}</style></defs><g id="Layer_2" data-name="Layer 2"><g id="Layer_1-2" data-name="Layer 1"><path class="cls-1" d="M184.44,58.25V94.07H172.38V2.56h33.75q15,0,23.53,7.67t8.52,20.29q0,13.33-8.33,20.53T206,58.25Zm0-9.87h21.69q9.68,0,14.83-4.56t5.16-13.19q0-8.19-5.16-13.1t-14.15-5.1H184.44Z"/><path class="cls-1" d="M318,2.56V64.78q-.08,13-8.15,21.18T288,95.2l-3.2.13q-15,0-23.95-8.11t-9.05-22.31V2.56H263.7v62q0,9.93,5.47,15.43t15.59,5.5q10.23,0,15.68-5.47t5.44-15.39v-62Z"/><path class="cls-1" d="M370.61,57.05h-21.5v37H337V2.56h30.29q15.47,0,23.79,7t8.33,20.49A24.61,24.61,0,0,1,394.77,45a27.54,27.54,0,0,1-12.85,9.49l21.49,38.85v.75H390.47Zm-21.5-9.87h18.54q9,0,14.3-4.65t5.31-12.47q0-8.5-5.06-13t-14.61-4.6H349.11Z"/><path class="cls-1" d="M468,51.77H428.37V84.2h46.07v9.87H416.3V2.56h57.51v9.87H428.37V41.9H468Z"/><rect class="cls-2" x="428.37" y="41.9" width="39.66" height="9.87"/><path class="cls-1" d="M171.71,133.78V112.51h7a8.11,8.11,0,0,1,5.21,1.44,5.15,5.15,0,0,1,1.74,4.23,4.3,4.3,0,0,1-.85,2.64,5.45,5.45,0,0,1-2.31,1.77,5,5,0,0,1,2.72,1.84,5.17,5.17,0,0,1,1,3.21,5.72,5.72,0,0,1-1.86,4.51,7.72,7.72,0,0,1-5.24,1.63Zm2.81-12.2h4.23a4.43,4.43,0,0,0,2.95-.92,3.1,3.1,0,0,0,1.1-2.5,3,3,0,0,0-1-2.55,5,5,0,0,0-3.11-.8h-4.15Zm0,2.25v7.65h4.63a4.51,4.51,0,0,0,3.09-1,3.57,3.57,0,0,0,1.13-2.79c0-2.56-1.39-3.85-4.18-3.85Z"/><path class="cls-1" d="M197.55,120.4a7.9,7.9,0,0,0-1.33-.1,3.58,3.58,0,0,0-3.61,2.26v11.22h-2.69V118h2.62l.05,1.83a4.2,4.2,0,0,1,3.76-2.12,2.86,2.86,0,0,1,1.2.2Z"/><path class="cls-1" d="M199,125.73a9.26,9.26,0,0,1,.92-4.17,6.71,6.71,0,0,1,2.54-2.87,6.9,6.9,0,0,1,3.71-1,6.62,6.62,0,0,1,5.22,2.24,8.51,8.51,0,0,1,2,5.94v.18a9.53,9.53,0,0,1-.88,4.14,6.78,6.78,0,0,1-2.53,2.86,7,7,0,0,1-3.78,1,6.59,6.59,0,0,1-5.2-2.24,8.52,8.52,0,0,1-2-5.9Zm2.72.32a6.83,6.83,0,0,0,1.22,4.23,4.12,4.12,0,0,0,6.53,0,7.36,7.36,0,0,0,1.22-4.52,6.75,6.75,0,0,0-1.24-4.21,4.11,4.11,0,0,0-6.51,0A7.38,7.38,0,0,0,201.74,126.05Z"/><path class="cls-1" d="M221.2,126.46l-1.69,1.77v5.55h-2.7V111.35h2.7v13.56l1.45-1.73,4.92-5.2h3.29l-6.16,6.6,6.87,9.2h-3.17Z"/><path class="cls-1" d="M232,113.79a1.6,1.6,0,0,1,.41-1.11,1.5,1.5,0,0,1,1.19-.45,1.52,1.52,0,0,1,1.19.45,1.66,1.66,0,0,1,0,2.21,1.59,1.59,0,0,1-1.19.43,1.56,1.56,0,0,1-1.19-.43A1.59,1.59,0,0,1,232,113.79Zm2.93,20h-2.71V118h2.71Z"/><path class="cls-1" d="M241.76,118l.1,2a5.72,5.72,0,0,1,4.72-2.28c3.34,0,5,1.88,5.06,5.65v10.44h-2.71V123.33a3.6,3.6,0,0,0-.78-2.53,3.12,3.12,0,0,0-2.39-.82,3.87,3.87,0,0,0-2.3.7,4.8,4.8,0,0,0-1.55,1.84v11.26h-2.7V118Z"/><path class="cls-1" d="M255.06,125.75a9.28,9.28,0,0,1,1.71-5.88,5.9,5.9,0,0,1,9-.14l.13-1.75h2.47V133.4a6.44,6.44,0,0,1-1.82,4.83,6.69,6.69,0,0,1-4.88,1.77,8.29,8.29,0,0,1-3.35-.73,5.87,5.87,0,0,1-2.5-2l1.4-1.62a5.3,5.3,0,0,0,4.25,2.14,4.17,4.17,0,0,0,3.08-1.1,4.28,4.28,0,0,0,1.1-3.13V132.2a5.52,5.52,0,0,1-4.42,1.87,5.37,5.37,0,0,1-4.49-2.24A9.7,9.7,0,0,1,255.06,125.75Zm2.72.3a7.08,7.08,0,0,0,1.09,4.2,3.57,3.57,0,0,0,3.07,1.53,3.93,3.93,0,0,0,3.75-2.33v-7.2A4,4,0,0,0,262,120a3.58,3.58,0,0,0-3.08,1.53A7.72,7.72,0,0,0,257.78,126.05Z"/><path class="cls-1" d="M283.12,125.46v8.32h-2.81V112.51h7.85a7.83,7.83,0,0,1,5.46,1.79,6,6,0,0,1,2,4.72,5.94,5.94,0,0,1-1.93,4.76,8.21,8.21,0,0,1-5.54,1.68Zm0-2.3h5a5,5,0,0,0,3.44-1.06,3.85,3.85,0,0,0,1.2-3.06,4,4,0,0,0-1.2-3,4.66,4.66,0,0,0-3.28-1.19h-5.2Z"/><path class="cls-1" d="M306.39,120.4a7.9,7.9,0,0,0-1.33-.1,3.58,3.58,0,0,0-3.61,2.26v11.22h-2.69V118h2.62l0,1.83a4.23,4.23,0,0,1,3.77-2.12,2.86,2.86,0,0,1,1.2.2Z"/><path class="cls-1" d="M308.89,113.79a1.59,1.59,0,0,1,.4-1.11,1.8,1.8,0,0,1,2.38,0,1.66,1.66,0,0,1,0,2.21,1.59,1.59,0,0,1-2.78-1.1Zm2.92,20h-2.7V118h2.7Z"/><path class="cls-1" d="M321.35,130.12,325.26,118H328l-5.67,15.8h-2.06L314.57,118h2.76Z"/><path class="cls-1" d="M340.15,133.78a5.72,5.72,0,0,1-.38-1.67,6,6,0,0,1-4.5,2,5.62,5.62,0,0,1-3.84-1.32,4.3,4.3,0,0,1-1.49-3.35,4.46,4.46,0,0,1,1.88-3.83,8.76,8.76,0,0,1,5.27-1.37h2.63V123a3.06,3.06,0,0,0-.84-2.26,3.46,3.46,0,0,0-2.5-.83,3.83,3.83,0,0,0-2.42.73,2.12,2.12,0,0,0-1,1.76h-2.72a3.7,3.7,0,0,1,.84-2.28,5.71,5.71,0,0,1,2.28-1.75,7.63,7.63,0,0,1,3.16-.64,6.25,6.25,0,0,1,4.28,1.36,4.91,4.91,0,0,1,1.6,3.77v7.26a8.91,8.91,0,0,0,.56,3.47v.23Zm-4.48-2.06a4.69,4.69,0,0,0,2.4-.66,3.83,3.83,0,0,0,1.65-1.71v-3.24H337.6c-3.3,0-5,1-5,2.91a2.47,2.47,0,0,0,.85,2A3.28,3.28,0,0,0,335.67,131.72Z"/><path class="cls-1" d="M350.33,114.15V118h2.95v2.09h-2.95v9.81a2.18,2.18,0,0,0,.39,1.43,1.67,1.67,0,0,0,1.34.47,6.21,6.21,0,0,0,1.28-.18v2.18a8,8,0,0,1-2.07.29,3.38,3.38,0,0,1-2.73-1.09,4.73,4.73,0,0,1-.92-3.11v-9.8h-2.88V118h2.88v-3.83Z"/><path class="cls-1" d="M363,134.07a6.91,6.91,0,0,1-5.23-2.11,7.83,7.83,0,0,1-2-5.64v-.5a9.55,9.55,0,0,1,.89-4.19,7,7,0,0,1,2.52-2.9,6.36,6.36,0,0,1,3.49-1,5.9,5.9,0,0,1,4.79,2,8.82,8.82,0,0,1,1.71,5.82v1.13h-10.7a5.68,5.68,0,0,0,1.36,3.77,4.31,4.31,0,0,0,3.33,1.44,4.72,4.72,0,0,0,2.42-.59,6.08,6.08,0,0,0,1.74-1.55L369,131A6.63,6.63,0,0,1,363,134.07Zm-.34-14.16a3.57,3.57,0,0,0-2.74,1.19,5.79,5.79,0,0,0-1.37,3.33h7.91v-.2a5.25,5.25,0,0,0-1.1-3.19A3.41,3.41,0,0,0,362.65,119.91Z"/><path class="cls-1" d="M382.92,131.48H393v2.3H380.1V112.51h2.82Z"/><path class="cls-1" d="M395.78,113.79a1.6,1.6,0,0,1,.41-1.11,1.5,1.5,0,0,1,1.19-.45,1.52,1.52,0,0,1,1.19.45,1.54,1.54,0,0,1-1.19,2.64,1.56,1.56,0,0,1-1.19-.43A1.59,1.59,0,0,1,395.78,113.79Zm2.92,20H396V118h2.7Z"/><path class="cls-1" d="M405.56,118l.08,1.75a5.83,5.83,0,0,1,4.69-2c2.21,0,3.71.84,4.5,2.54a5.9,5.9,0,0,1,5-2.54c3.47,0,5.23,1.84,5.29,5.5v10.59h-2.7V123.35a3.6,3.6,0,0,0-.78-2.53,3.38,3.38,0,0,0-2.6-.84,3.58,3.58,0,0,0-2.49.9,3.63,3.63,0,0,0-1.15,2.41v10.49h-2.72V123.43c0-2.3-1.12-3.45-3.38-3.45a3.58,3.58,0,0,0-3.62,2.27v11.53H403V118Z"/><path class="cls-1" d="M429.25,113.79a1.56,1.56,0,0,1,.41-1.11,1.5,1.5,0,0,1,1.19-.45,1.54,1.54,0,0,1,1.19.45,1.54,1.54,0,0,1-1.19,2.64,1.45,1.45,0,0,1-1.6-1.53Zm2.92,20h-2.7V118h2.7Z"/><path class="cls-1" d="M440.16,114.15V118h2.95v2.09h-2.95v9.81a2.24,2.24,0,0,0,.39,1.43,1.71,1.71,0,0,0,1.35.47,6.4,6.4,0,0,0,1.28-.18v2.18a8,8,0,0,1-2.08.29,3.38,3.38,0,0,1-2.72-1.09,4.67,4.67,0,0,1-.92-3.11v-9.8h-2.88V118h2.88v-3.83Z"/><path class="cls-1" d="M452.82,134.07A6.87,6.87,0,0,1,447.6,132a7.84,7.84,0,0,1-2-5.64v-.5a9.42,9.42,0,0,1,.9-4.19,6.92,6.92,0,0,1,2.51-2.9,6.39,6.39,0,0,1,3.49-1,5.94,5.94,0,0,1,4.8,2,8.82,8.82,0,0,1,1.71,5.82v1.13h-10.7a5.58,5.58,0,0,0,1.36,3.77,4.29,4.29,0,0,0,3.32,1.44,4.69,4.69,0,0,0,2.42-.59,6.08,6.08,0,0,0,1.74-1.55l1.65,1.29A6.61,6.61,0,0,1,452.82,134.07Zm-.34-14.16a3.59,3.59,0,0,0-2.74,1.19,5.79,5.79,0,0,0-1.37,3.33h7.91v-.2a5.18,5.18,0,0,0-1.1-3.19A3.38,3.38,0,0,0,452.48,119.91Z"/><path class="cls-1" d="M461.45,125.75a9.25,9.25,0,0,1,1.73-5.85,5.85,5.85,0,0,1,8.9-.31v-8.24h2.71v22.43H472.3l-.13-1.69a5.54,5.54,0,0,1-4.51,2,5.38,5.38,0,0,1-4.47-2.25,9.33,9.33,0,0,1-1.74-5.87Zm2.7.3a7,7,0,0,0,1.12,4.21,3.59,3.59,0,0,0,3.06,1.52,3.94,3.94,0,0,0,3.75-2.31v-7.26a4,4,0,0,0-3.72-2.23,3.6,3.6,0,0,0-3.09,1.53A7.71,7.71,0,0,0,464.15,126.05Z"/><path class="cls-1" d="M131.93,41.92A68.81,68.81,0,0,0,107.22,11.7,70.77,70.77,0,0,0,68.71,0,69.32,69.32,0,0,0,41.92,5.53,67.26,67.26,0,0,0,11.7,30.26,69.22,69.22,0,0,0,0,68.71v67.74a1,1,0,0,0,1,1H68.71a69.5,69.5,0,0,0,26.82-5.49,68.56,68.56,0,0,0,30.19-24.7,70.55,70.55,0,0,0,11.7-38.52A69.35,69.35,0,0,0,131.93,41.92Z"/><path class="cls-3" d="M56.12,101.79l-4.83,2.81a.49.49,0,0,1-.64-.11L28.75,77.17a.5.5,0,0,1,.39-.81h79a.5.5,0,0,1,.32.88L93.77,90.15a.47.47,0,0,1-.32.12H87.54a.51.51,0,0,0-.4.2L75.83,105.76a.53.53,0,0,1-.32.19l-12.75,2.11a.49.49,0,0,1-.44-.16l-5.58-6A.5.5,0,0,0,56.12,101.79Z"/><polygon class="cls-4" points="133.23 14.98 130.83 13.48 141.98 5.16 139.3 18.81 136.77 17.22 110.19 67.36 108.21 70.4 106.55 67.2 98.51 51.78 94.57 55.26 92.91 56.75 91.53 54.97 83.05 44.13 80.65 50.01 78.68 54.86 76.74 50.01 67.87 27.52 62.59 47.32 61.41 51.74 58.8 48 55.88 43.78 55.64 44.09 54.27 45.71 52.65 44.33 49.26 41.41 42.87 51.27 41.33 53.71 39.95 52.02 30.6 69.97 27.77 66.37 37.66 47.25 39.16 44.4 40.93 46.58 47.05 37.12 48.35 35.07 50.2 36.64 53.79 39.75 54.46 38.96 56.24 36.87 57.77 39.12 59.67 41.84 65.42 20.28 67.08 14.08 69.45 20.03 78.72 43.54 80.53 39.16 81.91 35.81 84.12 38.69 93.46 50.6 97.72 46.82 99.74 45.04 101 47.4 108.6 62.03 133.23 14.98"/><polygon class="cls-5" points="133.23 14.98 130.83 13.48 141.98 5.16 139.3 18.81 136.77 17.22 110.19 67.36 108.21 70.4 106.55 67.2 98.51 51.78 94.57 55.26 92.91 56.75 91.53 54.97 83.05 44.13 80.65 50.01 78.68 54.86 76.74 50.01 67.87 27.52 62.59 47.32 61.41 51.74 58.8 48 55.88 43.78 55.64 44.09 54.27 45.71 52.65 44.33 49.26 41.41 42.87 51.27 41.33 53.71 39.95 52.02 30.6 69.97 27.77 66.37 37.66 47.25 39.16 44.4 40.93 46.58 47.05 37.12 48.35 35.07 50.2 36.64 53.79 39.75 54.46 38.96 56.24 36.87 57.77 39.12 59.67 41.84 65.42 20.28 67.08 14.08 69.45 20.03 78.72 43.54 80.53 39.16 81.91 35.81 84.12 38.69 93.46 50.6 97.72 46.82 99.74 45.04 101 47.4 108.6 62.03 133.23 14.98"/></g></g></svg>