<svg xmlns="http://www.w3.org/2000/svg" viewBox="0 0 670 533.3"><defs><style>.cls-1{fill:#38ab4f;}.cls-2{fill:#ef7e3b;}</style></defs><g id="Layer_2" data-name="Layer 2"><g id="Layer_1-2" data-name="Layer 1"><g id="Logo"><path class="cls-1" d="M659.89,249.13,233.12,2.74a20.23,20.23,0,0,0-30.34,17.51v65.6l269.68,155.7a29,29,0,0,1,0,50.2L202.78,447.45V513a20.23,20.23,0,0,0,30.34,17.52l426.77-246.4A20.23,20.23,0,0,0,659.89,249.13Z"/><path class="cls-2" d="M457.1,249.13,30.34,2.74A20.23,20.23,0,0,0,0,20.25V513a20.23,20.23,0,0,0,30.34,17.52l119-68.68V360.49l35-20.23,89.33-51.57a20.22,20.22,0,0,0,0-35L128.57,169.89A20.19,20.19,0,0,0,98.23,187.4V452.92c0,10.36-7.85,18.76-17.52,18.76s-17.52-8.4-17.52-18.76V187.4a55.22,55.22,0,0,1,82.9-47.85l145.09,83.77a55.26,55.26,0,0,1,0,95.71L184.33,380.72v60.93L457.1,284.16A20.22,20.22,0,0,0,457.1,249.13Z"/></g></g></g></svg>