<?xml version="1.0" encoding="utf-8"?>
<!-- Generator: Adobe Illustrator 25.0.0, SVG Export Plug-In . SVG Version: 6.00 Build 0)  -->
<svg version="1.1" id="Layer_1" xmlns="http://www.w3.org/2000/svg" xmlns:xlink="http://www.w3.org/1999/xlink" x="0px" y="0px"
	 viewBox="0 0 670 533.3" style="enable-background:new 0 0 670 533.3;" xml:space="preserve">
<style type="text/css">
	.st0{fill:#FFFFFF;}
</style>
<g id="Layer_2_1_">
	<g id="Layer_1-2">
		<g id="Logo">
			<path class="st0" d="M659.9,249.1L233.1,2.7c-9.7-5.6-22-2.3-27.6,7.4c-1.8,3.1-2.7,6.6-2.7,10.1v65.6l269.7,155.7
				c13.9,8,18.6,25.8,10.6,39.6c-2.5,4.4-6.2,8-10.6,10.6L202.8,447.5V513c0,11.2,9.1,20.2,20.2,20.2c3.5,0,7-0.9,10.1-2.7
				l426.8-246.4c9.7-5.6,12.9-18,7.3-27.7C665.5,253.4,662.9,250.9,659.9,249.1z"/>
			<path class="st0" d="M457.1,249.1L30.3,2.7c-9.7-5.6-22-2.3-27.6,7.4C0.9,13.2,0,16.7,0,20.2V513c0,11.2,9.1,20.2,20.2,20.2
				c3.5,0,7-0.9,10.1-2.7l119-68.7V360.5l35-20.2l89.3-51.6c9.7-5.6,13-18,7.4-27.6c-1.8-3.1-4.3-5.6-7.4-7.4l-145.1-83.8
				c-9.6-5.6-22-2.3-27.6,7.3c-1.8,3.1-2.7,6.6-2.7,10.2v265.5c0,10.4-7.8,18.8-17.5,18.8s-17.5-8.4-17.5-18.8V187.4
				c0-30.5,24.7-55.3,55.2-55.3c9.7,0,19.3,2.6,27.7,7.4l145.1,83.8c26.4,15.3,35.5,49.1,20.2,75.5c-4.8,8.4-11.8,15.4-20.2,20.2
				l-106.8,61.7v60.9l272.8-157.5c9.7-5.6,13-17.9,7.4-27.6C462.7,253.5,460.2,250.9,457.1,249.1z"/>
		</g>
	</g>
</g>
</svg>
