<svg xmlns="http://www.w3.org/2000/svg" viewBox="0 0 600 600"><defs><style>.cls-1{fill:#fff;}</style></defs><g id="Layer_2" data-name="Layer 2"><g id="Layer_1-2" data-name="Layer 1"><g id="Shape"><path class="cls-1" d="M553.25,113.88l-61.2,61.21A108.67,108.67,0,0,1,466.2,287.53L285.72,468a108.67,108.67,0,0,1-112.45,25.84l-61.22,61.22c73,43.17,168.64,33.41,231.39-29.34L523.93,345.26c.62-.62,1.22-1.23,1.8-1.86C586.86,280.64,596,186.17,553.25,113.88Z"/><path class="cls-1" d="M256.6,74.27c-.63.58-1.24,1.19-1.86,1.8L74.26,256.56C11.51,319.31,1.76,415,44.92,488l61.22-61.22A108.67,108.67,0,0,1,132,314.28L312.47,133.8A108.69,108.69,0,0,1,424.92,108l61.2-61.2C413.83,4,319.36,13.14,256.6,74.27Z"/><path class="cls-1" d="M588,69.69,463.46,194.26a40.81,40.81,0,0,1-57.72-57.72L530.31,12A40.82,40.82,0,1,1,588,69.69Z"/><path class="cls-1" d="M194.26,463.46,69.69,588A40.82,40.82,0,1,1,12,530.31L136.54,405.74a40.81,40.81,0,1,1,57.72,57.72Z"/></g></g></g></svg>