<?xml version="1.0" encoding="utf-8"?>
<!-- Generator: Adobe Illustrator 25.1.0, SVG Export Plug-In . SVG Version: 6.00 Build 0)  -->
<svg version="1.1" id="Layer_1" xmlns="http://www.w3.org/2000/svg" xmlns:xlink="http://www.w3.org/1999/xlink" x="0px" y="0px"
	 viewBox="0 0 199.1 199.1" style="enable-background:new 0 0 199.1 199.1;" xml:space="preserve">
<style type="text/css">
	.st0{fill:#FFFFFF;}
</style>
<g>
	<path class="st0" d="M69,76.1c-4.7-2.6-10.3-2.6-15,0c-2.2,1.3-4,3.1-5.2,5.4c-1.3,2.4-1.9,5.2-1.8,7.9c0,2.7,0.6,5.4,1.8,7.8
		c1.2,2.3,2.9,4.1,5.1,5.4c2.2,1.3,4.8,2,7.4,2c2.7,0.1,5.3-0.6,7.6-2c2.2-1.3,3.9-3.2,5.1-5.4c1.3-2.4,1.9-5.1,1.8-7.8
		c0.1-2.8-0.6-5.5-1.8-7.9C72.9,79.3,71.1,77.4,69,76.1z"/>
	<path class="st0" d="M190.1,42.8l-19.1-6.1v84.8h-19.8v-4.8c-4.8,4-10.9,6.2-17.2,6.1c-5.7,0.1-11.3-1.4-16.2-4.4
		c-4.7-2.9-8.5-7-11.1-11.9c-2.7-5.3-4.1-11.2-4-17.2c-0.1-6,1.3-11.9,4-17.2c2.6-4.9,6.4-9,11.1-11.9c4.9-3,10.5-4.5,16.2-4.4
		c4.1-0.1,8.2,0.8,12,2.5c1.7,0.8,3.3,1.8,4.8,3V30.2L59,0.6C52.3-1.6,45,2.2,42.8,9L0.6,140.1c-2.2,6.8,1.5,14,8.3,16.2L140,198.5
		c6.8,2.2,14-1.5,16.2-8.3l42.2-131.1C200.7,52.3,196.9,45,190.1,42.8z M53.2,120.4c-1.8-0.8-3.6-1.9-5.2-3.2v31.5H28V57.3h20.2v4.4
		c1.5-1.2,3.1-2.3,4.9-3.1c3.7-1.8,7.8-2.7,11.9-2.6c5.7-0.1,11.3,1.4,16.2,4.3c4.7,2.9,8.5,7,11.1,11.9c2.7,5.3,4.1,11.2,4,17.2
		c0.1,6-1.3,11.9-4,17.2c-2.6,4.9-6.4,9-11.1,11.9c-4.9,3-10.5,4.5-16.2,4.4C60.9,122.9,56.9,122.1,53.2,120.4z M129.6,143.6
		c-0.4,0.7-9.7,18-28.5,18c-11.8,0-19.2-6.8-23.2-12.1l0,0c-1.5-1.9-2.8-4-3.8-6.2c-0.9-2.1,0.1-4.6,2.2-5.5s4.6,0.1,5.5,2.2
		c0.2,0.6,5.9,13.2,19.3,13.2c13.8,0,21-13.4,21.1-13.5c1.1-2,3.6-2.8,5.7-1.7C129.9,139,130.7,141.6,129.6,143.6z"/>
	<path class="st0" d="M145.2,76.2c-4.6-2.7-10.3-2.7-15,0c-2.2,1.3-3.9,3.2-5.2,5.4c-1.3,2.4-2,5.1-1.9,7.8c0,2.7,0.6,5.4,1.9,7.8
		c1.2,2.2,3,4.1,5.2,5.4c2.2,1.3,4.8,2,7.4,2c2.6,0.1,5.2-0.6,7.5-1.9c2.1-1.3,3.9-3.2,5-5.4c2.4-5,2.5-10.8,0.1-15.8
		C149.1,79.3,147.4,77.5,145.2,76.2z"/>
</g>
</svg>
